{"glyphs":{"0":{"ha":1164,"x_min":0,"x_max":0,"o":"m 586 -19 b 1018 61 847 -19 963 1 b 1115 514 1079 126 1115 244 b 1014 989 1115 792 1078 924 b 585 1071 957 1046 847 1071 b 154 988 315 1071 208 1044 b 49 514 90 921 49 792 b 149 61 49 247 83 126 b 586 -19 204 4 315 -19 z m 583 226 b 422 260 485 226 442 239 b 381 514 394 286 381 347 b 424 792 381 696 396 764 b 582 825 447 815 488 825 b 743 790 681 825 721 813 b 785 514 768 765 785 697 b 744 261 785 347 769 286 b 583 226 724 240 682 226 z "},"1":{"ha":786,"x_min":0,"x_max":0,"o":"m 407 -1 b 672 -1 496 -4 583 -4 b 699 26 690 0 699 8 l 701 1024 b 675 1051 701 1042 693 1051 b 417 1051 594 1054 497 1054 b 365 1036 397 1051 382 1046 l 28 817 b 21 781 13 807 11 796 l 124 628 b 160 619 133 613 144 611 l 358 746 b 385 732 376 757 385 753 l 381 26 b 407 -1 381 8 389 0 z "},"2":{"ha":1079,"x_min":0,"x_max":0,"o":"m 76 0 b 1022 0 326 -4 769 -4 b 1049 26 1040 0 1049 8 l 1049 218 b 1022 244 1049 236 1040 244 b 404 238 910 243 579 236 b 382 260 390 238 382 244 b 401 319 382 286 386 303 b 644 376 421 340 474 354 b 967 485 815 401 913 431 b 1039 732 1013 533 1039 610 b 958 989 1039 856 1010 942 b 546 1069 903 1042 806 1069 b 125 975 282 1069 182 1033 b 32 725 81 929 46 844 b 56 699 31 707 38 699 l 322 701 b 354 726 340 701 350 710 b 392 808 365 767 375 793 b 542 839 413 828 440 839 b 699 811 656 839 682 828 b 719 742 715 796 719 771 b 699 667 719 708 715 685 b 501 610 676 643 639 632 b 122 490 242 574 175 546 b 42 222 67 435 43 361 b 49 26 42 133 44 78 b 76 0 49 8 58 0 z "},"3":{"ha":1122,"x_min":0,"x_max":0,"o":"m 542 -19 b 997 71 839 -19 942 15 b 1069 311 1043 117 1069 197 b 981 531 1069 436 1047 490 b 931 581 951 550 931 561 b 972 635 931 600 947 610 b 1036 799 1017 681 1036 722 b 972 988 1036 881 1013 947 b 539 1071 918 1042 842 1071 b 107 975 257 1069 169 1038 b 21 750 68 935 32 840 b 44 724 18 732 26 724 l 310 725 b 343 753 329 725 339 733 b 369 811 349 779 357 799 b 533 844 388 831 413 844 b 682 815 643 844 667 832 b 701 751 694 804 701 782 b 676 675 701 718 694 693 b 560 647 657 656 633 647 l 346 644 b 319 618 328 644 319 636 l 319 444 b 346 419 319 426 328 419 l 564 419 b 721 393 685 421 700 414 b 743 314 736 378 743 350 b 724 238 743 276 739 253 b 550 207 704 219 669 207 b 386 239 422 207 401 224 b 357 304 371 253 363 276 b 324 332 353 324 343 332 l 43 331 b 18 304 25 331 17 322 b 108 71 26 211 64 115 b 542 -19 164 15 254 -21 z "},"4":{"ha":1139,"x_min":0,"x_max":0,"o":"m 647 0 l 918 0 b 944 26 936 0 944 8 l 944 176 b 967 199 944 190 951 199 l 1101 199 b 1128 225 1119 199 1128 207 l 1128 424 b 1101 450 1128 442 1119 450 l 967 450 b 944 472 953 450 944 457 l 950 1024 b 924 1050 950 1042 942 1050 l 631 1050 b 582 1032 611 1050 597 1044 b 19 453 396 865 167 615 b 0 404 6 438 0 424 l 0 225 b 26 199 0 207 8 199 l 601 199 b 625 176 615 199 624 192 b 621 26 625 131 622 69 b 647 0 621 8 629 0 z m 333 474 l 601 757 b 632 753 617 776 631 772 l 629 474 b 607 451 629 460 622 451 l 343 451 b 333 474 322 451 319 458 z "},"5":{"ha":1057,"x_min":0,"x_max":0,"o":"m 531 -15 b 949 61 818 -15 899 11 b 1019 339 992 107 1019 186 b 947 632 1019 496 996 583 b 643 699 910 669 844 699 b 388 639 508 699 461 685 b 354 658 367 631 357 636 l 360 774 b 383 796 361 788 368 796 l 974 793 b 999 819 992 793 1000 801 l 999 1024 b 972 1050 999 1042 990 1050 l 121 1050 b 93 1024 103 1050 94 1042 l 61 438 b 86 410 60 419 68 411 l 331 406 b 379 422 350 404 364 410 b 393 432 385 425 389 429 b 525 454 415 444 438 453 b 671 428 629 457 654 444 b 696 331 690 408 696 376 b 671 239 696 275 686 256 b 526 213 658 228 635 213 b 389 236 429 213 403 222 b 367 283 381 244 374 257 b 335 310 363 301 353 310 l 65 310 b 40 283 47 310 39 301 b 124 60 50 171 81 104 b 531 -15 171 14 258 -15 z "},"6":{"ha":1149,"x_min":0,"x_max":0,"o":"m 583 -21 b 1022 65 876 -21 968 13 b 1099 335 1068 111 1099 199 b 1026 604 1099 469 1072 561 b 717 672 979 653 897 672 b 406 601 533 672 490 650 b 369 622 385 593 374 600 b 410 804 371 718 386 781 b 565 839 431 826 465 839 b 732 808 693 839 715 826 b 751 779 740 801 746 792 b 788 754 758 763 769 754 l 1083 754 b 1103 781 1101 754 1107 763 b 1014 978 1078 881 1047 944 b 557 1071 951 1039 856 1071 b 154 976 304 1071 211 1035 b 50 549 88 911 50 789 b 147 71 50 261 83 136 b 583 -21 206 10 303 -21 z m 578 210 b 393 243 464 210 418 218 b 374 317 378 258 374 283 b 410 399 374 350 388 381 b 581 439 449 432 479 439 b 754 413 722 439 740 426 b 778 329 771 396 778 369 b 756 240 778 281 771 256 b 578 210 739 224 701 210 z "},"7":{"ha":979,"x_min":0,"x_max":0,"o":"m 246 0 l 556 0 b 589 26 575 0 585 8 b 939 753 646 250 785 539 b 956 800 950 767 954 782 l 957 1024 b 931 1050 957 1042 949 1050 l 58 1050 b 32 1024 40 1050 32 1042 l 31 808 b 56 782 29 790 38 782 l 594 788 b 604 765 615 788 618 781 b 222 32 454 589 289 269 b 246 0 215 11 224 0 z "},"8":{"ha":1203,"x_min":0,"x_max":0,"o":"m 600 -19 b 1076 58 918 -19 1025 4 b 1149 292 1125 108 1149 175 b 1042 536 1149 418 1119 482 b 1036 594 1013 554 1011 572 b 1125 799 1103 656 1125 704 b 1060 990 1125 889 1104 947 b 600 1071 1006 1042 906 1071 b 146 990 299 1071 199 1042 b 78 799 100 946 78 886 b 169 593 78 706 101 654 b 165 535 196 571 194 551 b 54 292 81 479 54 419 b 126 57 54 165 81 103 b 600 -19 179 4 285 -19 z m 600 204 b 399 233 447 204 417 215 b 375 318 383 250 375 275 b 404 406 375 360 385 386 b 597 432 424 424 446 432 b 799 406 757 432 782 424 b 828 318 818 388 828 364 b 804 233 828 276 819 249 b 600 204 786 215 757 204 z m 600 647 b 425 674 482 647 443 656 b 397 751 407 690 397 715 b 418 819 397 776 403 804 b 600 847 435 835 458 847 b 786 819 746 847 769 835 b 806 747 801 804 806 779 b 779 674 806 714 796 690 b 600 647 764 658 735 647 z "},"9":{"ha":1140,"x_min":0,"x_max":0,"o":"m 560 1072 b 121 986 267 1072 175 1039 b 44 717 75 940 44 853 b 117 447 44 582 71 490 b 426 379 164 399 246 379 b 738 450 610 379 653 401 b 774 429 758 458 769 451 b 733 247 772 333 757 271 b 578 213 713 225 678 213 b 411 243 450 213 428 225 b 392 272 403 250 397 260 b 356 297 385 289 374 297 l 60 297 b 40 271 42 297 36 289 b 129 74 65 171 96 107 b 586 -19 192 13 288 -19 b 989 75 839 -19 932 17 b 1093 503 1056 140 1093 263 b 996 981 1093 790 1060 915 b 560 1072 938 1042 840 1072 z m 565 842 b 750 808 679 842 725 833 b 769 735 765 793 769 768 b 733 653 769 701 756 671 b 563 613 694 619 664 613 b 389 639 421 613 403 625 b 365 722 372 656 365 682 b 388 811 365 771 372 796 b 565 842 404 828 442 842 z "}," ":{"ha":301,"x_min":0,"x_max":0,"o":""}," ":{"ha":301,"x_min":0,"x_max":0,"o":""},"A":{"ha":1229,"x_min":0,"x_max":0,"o":"m 36 -1 l 294 -1 b 332 25 314 -1 325 7 l 385 172 b 422 199 392 190 403 199 l 771 199 b 808 172 790 199 801 190 l 861 25 b 899 -1 868 7 879 -1 b 1192 -1 996 -4 1094 -4 b 1213 31 1214 -1 1221 8 b 824 1026 1099 339 949 733 b 786 1051 817 1043 804 1051 b 454 1051 699 1053 539 1053 b 417 1026 436 1050 424 1043 b 14 31 303 763 133 353 b 36 -1 7 8 14 -1 z m 490 469 b 581 714 522 557 553 642 b 611 722 589 739 603 739 b 704 469 640 647 672 560 b 683 440 711 450 704 440 l 511 440 b 490 469 490 440 483 450 z "},"Á":{"ha":1229,"x_min":0,"x_max":0,"o":"m 36 -1 l 294 -1 b 332 25 314 -1 325 7 l 385 172 b 422 199 392 190 403 199 l 771 199 b 808 172 790 199 801 190 l 861 25 b 899 -1 868 7 879 -1 b 1192 -1 996 -4 1094 -4 b 1213 31 1214 -1 1221 8 b 824 1026 1099 339 949 733 b 786 1051 817 1043 804 1051 b 454 1051 699 1053 539 1053 b 417 1026 436 1050 424 1043 b 14 31 303 763 133 353 b 36 -1 7 8 14 -1 z m 500 1132 l 625 1132 b 669 1156 644 1132 658 1139 l 808 1376 b 793 1404 821 1394 815 1404 l 631 1404 b 590 1379 611 1404 599 1396 l 481 1161 b 500 1132 471 1142 476 1132 z m 490 469 b 581 714 522 557 553 642 b 611 722 589 739 603 739 b 704 469 640 647 672 560 b 683 440 711 450 704 440 l 511 440 b 490 469 490 440 483 450 z "},"Â":{"ha":1229,"x_min":0,"x_max":0,"o":"m 36 -1 l 294 -1 b 332 25 314 -1 325 7 l 385 172 b 422 199 392 190 403 199 l 771 199 b 808 172 790 199 801 190 l 861 25 b 899 -1 868 7 879 -1 b 1192 -1 996 -4 1094 -4 b 1213 31 1214 -1 1221 8 b 824 1026 1099 339 949 733 b 786 1051 817 1043 804 1051 b 454 1051 699 1053 539 1053 b 417 1026 436 1050 424 1043 b 14 31 303 763 133 353 b 36 -1 7 8 14 -1 z m 497 1378 l 340 1158 b 354 1132 326 1140 331 1132 l 493 1132 b 538 1154 513 1132 526 1139 l 610 1250 l 679 1154 b 724 1132 690 1139 704 1132 l 860 1132 b 875 1158 883 1132 888 1140 l 725 1378 b 681 1401 714 1394 700 1401 l 542 1401 b 497 1378 522 1401 508 1394 z m 490 469 b 581 714 522 557 553 642 b 611 722 589 739 603 739 b 704 469 640 647 672 560 b 683 440 711 450 704 440 l 511 440 b 490 469 490 440 483 450 z "},"Ä":{"ha":1229,"x_min":0,"x_max":0,"o":"m 36 -1 l 294 -1 b 332 25 314 -1 325 7 l 385 172 b 422 199 392 190 403 199 l 771 199 b 808 172 790 199 801 190 l 861 25 b 899 -1 868 7 879 -1 b 1192 -1 996 -4 1094 -4 b 1213 31 1214 -1 1221 8 b 824 1026 1099 339 949 733 b 786 1051 817 1043 804 1051 b 454 1051 699 1053 539 1053 b 417 1026 436 1050 424 1043 b 14 31 303 763 133 353 b 36 -1 7 8 14 -1 z m 667 1138 l 839 1138 b 865 1164 856 1138 865 1146 l 865 1326 b 839 1353 865 1343 857 1353 l 667 1353 b 640 1326 649 1353 640 1344 l 640 1164 b 667 1138 640 1146 647 1138 z m 386 1138 l 556 1138 b 582 1164 574 1138 582 1146 l 582 1326 b 556 1353 582 1343 574 1353 l 386 1353 b 360 1326 368 1353 360 1344 l 360 1164 b 386 1138 360 1146 367 1138 z m 490 469 b 581 714 522 557 553 642 b 611 722 589 739 603 739 b 704 469 640 647 672 560 b 683 440 711 450 704 440 l 511 440 b 490 469 490 440 483 450 z "},"À":{"ha":1229,"x_min":0,"x_max":0,"o":"m 36 -1 l 294 -1 b 332 25 314 -1 325 7 l 385 172 b 422 199 392 190 403 199 l 771 199 b 808 172 790 199 801 190 l 861 25 b 899 -1 868 7 879 -1 b 1192 -1 996 -4 1094 -4 b 1213 31 1214 -1 1221 8 b 824 1026 1099 339 949 733 b 786 1051 817 1043 804 1051 b 454 1051 699 1053 539 1053 b 417 1026 436 1050 424 1043 b 14 31 303 763 133 353 b 36 -1 7 8 14 -1 z m 753 1161 l 647 1378 b 607 1404 639 1396 626 1404 l 440 1404 b 424 1375 417 1404 413 1394 l 560 1156 b 603 1132 571 1139 583 1132 l 735 1132 b 753 1161 757 1132 764 1142 z m 490 469 b 581 714 522 557 553 642 b 611 722 589 739 603 739 b 704 469 640 647 672 560 b 683 440 711 450 704 440 l 511 440 b 490 469 490 440 483 450 z "},"Å":{"ha":1229,"x_min":0,"x_max":0,"o":"m 36 -1 l 294 -1 b 332 25 314 -1 325 7 l 385 172 b 422 199 392 190 403 199 l 771 199 b 808 172 790 199 801 190 l 861 25 b 899 -1 868 7 879 -1 b 1192 -1 996 -4 1094 -4 b 1213 31 1214 -1 1221 8 b 824 1026 1099 339 949 733 b 786 1051 817 1043 804 1051 b 454 1051 699 1053 539 1053 b 417 1026 436 1050 424 1043 b 14 31 303 763 133 353 b 36 -1 7 8 14 -1 z m 611 1096 b 813 1282 728 1096 813 1175 b 611 1468 813 1389 728 1468 b 408 1282 493 1468 408 1389 b 611 1096 408 1175 493 1096 z m 610 1219 b 551 1282 576 1219 551 1246 b 610 1344 551 1318 576 1344 b 669 1282 644 1344 671 1318 b 610 1219 671 1246 644 1219 z m 490 469 b 581 714 522 557 553 642 b 611 722 589 739 603 739 b 704 469 640 647 672 560 b 683 440 711 450 704 440 l 511 440 b 490 469 490 440 483 450 z "},"Ã":{"ha":1229,"x_min":0,"x_max":0,"o":"m 36 -1 l 294 -1 b 332 25 314 -1 325 7 l 385 172 b 422 199 392 190 403 199 l 771 199 b 808 172 790 199 801 190 l 861 25 b 899 -1 868 7 879 -1 b 1192 -1 996 -4 1094 -4 b 1213 31 1214 -1 1221 8 b 824 1026 1099 339 949 733 b 786 1051 817 1043 804 1051 b 454 1051 699 1053 539 1053 b 417 1026 436 1050 424 1043 b 14 31 303 763 133 353 b 36 -1 7 8 14 -1 z m 753 1111 b 850 1147 793 1111 825 1124 b 868 1199 863 1163 868 1179 l 868 1303 b 844 1314 868 1325 861 1329 b 758 1286 817 1292 794 1286 b 650 1313 721 1286 688 1299 b 514 1344 611 1328 567 1344 b 415 1308 475 1344 442 1332 b 396 1258 401 1293 396 1278 l 396 1153 b 421 1140 396 1129 404 1126 b 508 1168 451 1163 474 1168 b 618 1142 547 1168 579 1156 b 753 1111 657 1126 701 1111 z m 490 469 b 581 714 522 557 553 642 b 611 722 589 739 603 739 b 704 469 640 647 672 560 b 683 440 711 450 704 440 l 511 440 b 490 469 490 440 483 450 z "},"B":{"ha":1154,"x_min":0,"x_max":0,"o":"m 117 0 l 706 0 b 1038 75 914 0 983 19 b 1100 293 1083 121 1100 186 b 1036 489 1100 385 1082 442 b 988 547 1010 514 988 524 b 1025 603 988 567 1001 578 b 1083 786 1064 643 1083 688 b 1022 979 1083 869 1067 936 b 685 1050 968 1033 908 1050 l 117 1050 b 89 1024 99 1050 89 1042 b 89 26 83 790 83 307 b 117 0 89 8 97 0 z m 406 246 b 406 404 404 292 404 360 b 428 426 407 418 414 426 l 653 426 b 751 404 703 426 733 422 b 774 326 768 388 774 363 b 753 250 774 286 767 264 b 657 225 736 233 706 225 l 428 225 b 406 246 414 225 407 232 z m 404 654 b 406 806 403 696 404 763 b 429 826 407 819 414 826 l 647 826 b 739 807 690 826 722 822 b 758 731 754 790 758 769 b 736 656 758 694 753 672 b 651 632 719 640 693 632 l 426 632 b 404 654 413 632 406 639 z "},"C":{"ha":1144,"x_min":0,"x_max":0,"o":"m 576 -19 b 1010 63 846 -19 953 4 b 1101 414 1063 117 1090 222 b 1071 447 1103 436 1093 447 l 799 449 b 768 421 779 449 769 440 b 731 263 760 319 751 282 b 578 228 710 239 671 229 b 422 261 481 226 443 240 b 379 521 396 286 379 342 b 424 790 379 694 399 764 b 578 822 444 811 482 822 b 728 789 671 822 707 811 b 767 643 747 765 756 725 b 799 614 769 624 779 614 l 1071 617 b 1101 650 1093 617 1103 626 b 1006 990 1088 835 1060 938 b 576 1069 950 1044 844 1069 b 156 985 303 1069 214 1042 b 49 517 92 921 49 771 b 154 65 49 269 92 129 b 576 -19 213 7 317 -19 z "},"Ç":{"ha":1144,"x_min":0,"x_max":0,"o":"m 49 517 b 154 65 49 269 92 129 b 476 -18 204 15 289 -11 l 394 -194 b 414 -225 385 -215 390 -225 l 574 -225 b 611 -199 593 -225 606 -217 l 675 -18 b 1010 63 874 -12 960 13 b 1101 414 1063 117 1090 222 b 1071 447 1103 436 1093 447 l 799 449 b 768 421 779 449 769 440 b 731 263 760 319 751 282 b 578 228 710 239 671 229 b 422 261 481 226 443 240 b 379 521 396 286 379 342 b 424 790 379 694 399 764 b 578 822 444 811 482 822 b 728 789 671 822 707 811 b 767 643 747 765 756 725 b 799 614 769 624 779 614 l 1071 617 b 1101 650 1093 617 1103 626 b 1006 990 1088 835 1060 938 b 576 1069 950 1044 844 1069 b 156 985 303 1069 214 1042 b 49 517 92 921 49 771 z "},"D":{"ha":1129,"x_min":0,"x_max":0,"o":"m 117 0 l 693 0 b 997 76 867 0 943 21 b 1085 515 1054 133 1085 246 b 981 981 1085 792 1042 918 b 651 1050 924 1035 836 1050 l 115 1050 b 88 1024 97 1050 89 1042 b 89 26 82 767 83 281 b 117 0 89 8 97 0 z m 404 267 b 404 783 403 406 403 653 b 426 806 404 797 411 806 l 606 806 b 714 776 651 806 692 797 b 760 504 743 747 760 669 b 724 278 760 346 746 300 b 607 244 701 256 661 244 l 426 244 b 404 267 413 244 404 251 z "},"Ð":{"ha":1129,"x_min":0,"x_max":0,"o":"m 117 0 l 693 0 b 997 76 867 0 943 21 b 1085 515 1054 133 1085 246 b 981 981 1085 792 1042 918 b 651 1050 924 1035 836 1050 l 115 1050 b 88 1024 97 1050 89 1042 b 83 617 85 917 85 769 l 6 617 b -21 590 -12 617 -21 608 l -21 457 b 6 431 -21 440 -12 431 l 85 431 b 89 26 85 278 86 132 b 117 0 89 8 97 0 z m 404 267 l 403 431 l 496 431 b 522 457 514 431 522 439 l 522 590 b 496 617 522 608 515 617 l 403 617 l 404 783 b 426 806 404 797 411 806 l 606 806 b 714 776 651 806 692 797 b 760 504 743 747 760 669 b 724 278 760 346 746 300 b 607 244 701 256 661 244 l 426 244 b 404 267 413 244 404 251 z "},"E":{"ha":1006,"x_min":0,"x_max":0,"o":"m 117 0 l 918 0 b 944 26 936 0 944 8 l 944 218 b 918 244 944 236 936 244 b 426 240 807 244 561 240 b 404 263 413 240 404 247 b 404 394 403 301 403 357 b 426 417 404 410 411 417 l 894 415 b 922 443 913 415 922 424 l 922 615 b 894 643 922 633 914 643 l 426 643 b 404 664 413 643 404 650 b 404 788 403 701 403 751 b 426 810 404 801 411 810 b 915 804 561 808 775 804 b 942 831 933 804 942 813 l 943 1024 b 917 1050 943 1042 935 1050 l 117 1050 b 89 1024 99 1050 89 1042 b 89 26 83 785 82 283 b 117 0 90 8 99 0 z "},"É":{"ha":1006,"x_min":0,"x_max":0,"o":"m 117 0 l 918 0 b 944 26 936 0 944 8 l 944 218 b 918 244 944 236 936 244 b 426 240 807 244 561 240 b 404 263 413 240 404 247 b 404 394 403 301 403 357 b 426 417 404 410 411 417 l 894 415 b 922 443 913 415 922 424 l 922 615 b 894 643 922 633 914 643 l 426 643 b 404 664 413 643 404 650 b 404 788 403 701 403 751 b 426 810 404 801 411 810 b 915 804 561 808 775 804 b 942 831 933 804 942 813 l 943 1024 b 917 1050 943 1042 935 1050 l 117 1050 b 89 1024 99 1050 89 1042 b 89 26 83 785 82 283 b 117 0 90 8 99 0 z m 417 1132 l 542 1132 b 586 1156 561 1132 575 1139 l 725 1376 b 710 1404 738 1394 732 1404 l 547 1404 b 507 1379 528 1404 515 1396 l 397 1161 b 417 1132 388 1142 393 1132 z "},"Ê":{"ha":1006,"x_min":0,"x_max":0,"o":"m 117 0 l 918 0 b 944 26 936 0 944 8 l 944 218 b 918 244 944 236 936 244 b 426 240 807 244 561 240 b 404 263 413 240 404 247 b 404 394 403 301 403 357 b 426 417 404 410 411 417 l 894 415 b 922 443 913 415 922 424 l 922 615 b 894 643 922 633 914 643 l 426 643 b 404 664 413 643 404 650 b 404 788 403 701 403 751 b 426 810 404 801 411 810 b 915 804 561 808 775 804 b 942 831 933 804 942 813 l 943 1024 b 917 1050 943 1042 935 1050 l 117 1050 b 89 1024 99 1050 89 1042 b 89 26 83 785 82 283 b 117 0 90 8 99 0 z m 414 1378 l 257 1158 b 271 1132 243 1140 247 1132 l 410 1132 b 454 1154 429 1132 443 1139 l 526 1250 l 596 1154 b 640 1132 607 1139 621 1132 l 776 1132 b 792 1158 800 1132 804 1140 l 642 1378 b 597 1401 631 1394 617 1401 l 458 1401 b 414 1378 439 1401 425 1394 z "},"Ë":{"ha":1006,"x_min":0,"x_max":0,"o":"m 117 0 l 918 0 b 944 26 936 0 944 8 l 944 218 b 918 244 944 236 936 244 b 426 240 807 244 561 240 b 404 263 413 240 404 247 b 404 394 403 301 403 357 b 426 417 404 410 411 417 l 894 415 b 922 443 913 415 922 424 l 922 615 b 894 643 922 633 914 643 l 426 643 b 404 664 413 643 404 650 b 404 788 403 701 403 751 b 426 810 404 801 411 810 b 915 804 561 808 775 804 b 942 831 933 804 942 813 l 943 1024 b 917 1050 943 1042 935 1050 l 117 1050 b 89 1024 99 1050 89 1042 b 89 26 83 785 82 283 b 117 0 90 8 99 0 z m 585 1138 l 757 1138 b 783 1164 774 1138 783 1146 l 783 1326 b 757 1353 783 1343 775 1353 l 585 1353 b 558 1326 567 1353 558 1344 l 558 1164 b 585 1138 558 1146 565 1138 z m 304 1138 l 474 1138 b 500 1164 492 1138 500 1146 l 500 1326 b 474 1353 500 1343 492 1353 l 304 1353 b 278 1326 286 1353 278 1344 l 278 1164 b 304 1138 278 1146 285 1138 z "},"È":{"ha":1006,"x_min":0,"x_max":0,"o":"m 117 0 l 918 0 b 944 26 936 0 944 8 l 944 218 b 918 244 944 236 936 244 b 426 240 807 244 561 240 b 404 263 413 240 404 247 b 404 394 403 301 403 357 b 426 417 404 410 411 417 l 894 415 b 922 443 913 415 922 424 l 922 615 b 894 643 922 633 914 643 l 426 643 b 404 664 413 643 404 650 b 404 788 403 701 403 751 b 426 810 404 801 411 810 b 915 804 561 808 775 804 b 942 831 933 804 942 813 l 943 1024 b 917 1050 943 1042 935 1050 l 117 1050 b 89 1024 99 1050 89 1042 b 89 26 83 785 82 283 b 117 0 90 8 99 0 z m 669 1161 l 564 1378 b 524 1404 556 1396 543 1404 l 357 1404 b 340 1375 333 1404 329 1394 l 476 1156 b 519 1132 488 1139 500 1132 l 651 1132 b 669 1161 674 1132 681 1142 z "},"F":{"ha":978,"x_min":0,"x_max":0,"o":"m 117 0 l 381 0 b 407 26 399 0 407 8 b 401 338 407 108 403 246 b 424 360 401 351 408 360 l 928 358 b 954 385 946 358 954 367 l 954 576 b 928 604 954 594 946 604 l 424 603 b 401 624 410 603 401 610 l 403 783 b 425 804 403 797 410 804 b 932 799 560 804 826 799 b 958 826 949 800 958 807 l 958 1024 b 932 1050 958 1042 950 1050 l 117 1051 b 89 1025 100 1051 90 1043 b 89 26 82 831 82 243 b 117 0 90 8 99 0 z "},"G":{"ha":1165,"x_min":0,"x_max":0,"o":"m 535 -19 b 869 75 711 -19 774 -4 b 904 61 886 86 899 82 l 910 26 b 940 0 911 8 921 0 l 1064 0 b 1092 26 1082 0 1090 8 b 1086 569 1093 144 1092 438 b 1058 596 1086 588 1076 596 l 589 596 b 561 569 571 596 561 588 l 561 403 b 589 376 561 385 569 376 l 750 376 b 769 354 764 376 771 369 b 731 268 767 315 753 290 b 571 222 703 239 660 224 b 419 254 479 221 443 231 b 379 507 394 279 378 339 b 422 790 381 693 396 764 b 590 826 444 814 497 826 b 738 796 686 826 721 813 b 771 724 756 778 765 749 b 804 696 774 704 785 696 l 1064 696 b 1093 728 1086 696 1096 706 b 1003 983 1074 856 1046 940 b 583 1071 949 1038 850 1071 b 157 982 307 1071 215 1042 b 49 517 92 915 49 758 b 158 54 49 274 94 117 b 535 -19 211 4 296 -19 z "},"H":{"ha":1194,"x_min":0,"x_max":0,"o":"m 114 0 l 386 0 b 413 26 404 0 413 8 b 414 367 411 115 413 269 b 436 389 415 381 422 389 l 763 389 b 785 367 776 389 785 382 b 783 26 786 269 786 131 b 810 0 783 8 790 0 l 1082 0 b 1108 26 1100 0 1108 8 b 1103 1024 1113 289 1108 775 b 1075 1050 1103 1042 1094 1050 l 813 1050 b 786 1024 794 1050 786 1042 b 785 663 786 908 788 772 b 763 640 785 649 776 640 l 436 640 b 413 663 422 640 414 647 b 408 1024 407 746 408 925 b 381 1050 408 1042 400 1050 l 121 1050 b 93 1024 103 1050 94 1042 b 86 26 85 776 81 306 b 114 0 86 8 94 0 z "},"I":{"ha":486,"x_min":0,"x_max":0,"o":"m 115 0 b 371 0 199 -1 289 0 b 399 26 389 0 399 8 b 399 1024 404 296 404 778 b 371 1051 399 1042 390 1050 l 115 1051 b 88 1024 97 1050 88 1042 b 88 26 83 778 82 296 b 115 0 88 8 96 0 z "},"Ĳ":{"ha":1542,"x_min":0,"x_max":0,"o":"m 115 0 b 371 0 199 -1 289 0 b 399 26 389 0 399 8 b 399 1024 404 296 404 778 b 371 1051 399 1042 390 1050 l 115 1051 b 88 1024 97 1050 88 1042 b 88 26 83 778 82 296 b 115 0 88 8 96 0 z m 997 -22 b 1386 71 1219 -22 1329 11 b 1467 385 1446 131 1467 211 b 1461 1024 1467 646 1465 860 b 1433 1051 1461 1042 1453 1050 b 1164 1051 1363 1056 1238 1056 b 1138 1022 1147 1050 1138 1042 b 1144 401 1139 843 1144 622 b 1115 260 1144 304 1132 278 b 992 222 1093 238 1057 222 b 874 254 921 222 892 236 b 828 415 854 274 842 297 b 799 443 826 433 817 443 b 531 443 731 446 596 446 b 506 415 513 443 504 435 b 600 69 517 218 543 131 b 997 -22 661 10 778 -22 z "},"Í":{"ha":486,"x_min":0,"x_max":0,"o":"m 115 0 b 371 0 199 -1 289 0 b 399 26 389 0 399 8 b 399 1024 404 296 404 778 b 371 1051 399 1042 390 1050 l 115 1051 b 88 1024 97 1050 88 1042 b 88 26 83 778 82 296 b 115 0 88 8 96 0 z m 133 1132 l 258 1132 b 303 1156 278 1132 292 1139 l 442 1376 b 426 1404 454 1394 449 1404 l 264 1404 b 224 1379 244 1404 232 1396 l 114 1161 b 133 1132 104 1142 110 1132 z "},"Î":{"ha":486,"x_min":0,"x_max":0,"o":"m 115 0 b 371 0 199 -1 289 0 b 399 26 389 0 399 8 b 399 1024 404 296 404 778 b 371 1051 399 1042 390 1050 l 115 1051 b 88 1024 97 1050 88 1042 b 88 26 83 778 82 296 b 115 0 88 8 96 0 z m 131 1378 l -26 1158 b -12 1132 -40 1140 -36 1132 l 126 1132 b 171 1154 146 1132 160 1139 l 243 1250 l 313 1154 b 357 1132 324 1139 338 1132 l 493 1132 b 508 1158 517 1132 521 1140 l 358 1378 b 314 1401 347 1394 333 1401 l 175 1401 b 131 1378 156 1401 142 1394 z "},"Ï":{"ha":486,"x_min":0,"x_max":0,"o":"m 115 0 b 371 0 199 -1 289 0 b 399 26 389 0 399 8 b 399 1024 404 296 404 778 b 371 1051 399 1042 390 1050 l 115 1051 b 88 1024 97 1050 88 1042 b 88 26 83 778 82 296 b 115 0 88 8 96 0 z m 301 1138 l 474 1138 b 500 1164 490 1138 500 1146 l 500 1326 b 474 1353 500 1343 492 1353 l 301 1353 b 275 1326 283 1353 275 1344 l 275 1164 b 301 1138 275 1146 282 1138 z m 21 1138 l 190 1138 b 217 1164 208 1138 217 1146 l 217 1326 b 190 1353 217 1343 208 1353 l 21 1353 b -6 1326 3 1353 -6 1344 l -6 1164 b 21 1138 -6 1146 1 1138 z "},"Ì":{"ha":486,"x_min":0,"x_max":0,"o":"m 115 0 b 371 0 199 -1 289 0 b 399 26 389 0 399 8 b 399 1024 404 296 404 778 b 371 1051 399 1042 390 1050 l 115 1051 b 88 1024 97 1050 88 1042 b 88 26 83 778 82 296 b 115 0 88 8 96 0 z m 386 1161 l 281 1378 b 240 1404 272 1396 260 1404 l 74 1404 b 57 1375 50 1404 46 1394 l 193 1156 b 236 1132 204 1139 217 1132 l 368 1132 b 386 1161 390 1132 397 1142 z "},"J":{"ha":1068,"x_min":0,"x_max":0,"o":"m 524 -22 b 913 71 746 -22 856 11 b 993 385 972 131 993 211 b 988 1024 993 646 992 860 b 960 1051 988 1042 979 1050 b 690 1051 889 1056 764 1056 b 664 1022 674 1050 664 1042 b 671 401 665 843 671 622 b 642 260 671 304 658 278 b 518 222 619 238 583 222 b 400 254 447 222 418 236 b 354 415 381 274 368 297 b 325 443 353 433 343 443 b 57 443 257 446 122 446 b 32 415 39 443 31 435 b 126 69 43 218 69 131 b 524 -22 188 10 304 -22 z "},"K":{"ha":1181,"x_min":0,"x_max":0,"o":"m 119 0 l 388 0 b 414 26 404 0 414 8 b 408 440 414 139 407 314 b 433 458 407 465 419 471 b 781 24 519 356 721 110 b 824 0 792 7 806 0 l 1161 0 b 1175 26 1185 0 1189 8 b 749 565 1032 210 892 394 b 750 610 735 581 736 594 b 1157 1026 875 742 1047 915 b 1147 1050 1172 1043 1169 1050 l 818 1050 b 771 1029 799 1050 783 1043 b 440 676 690 936 544 782 b 408 681 424 657 410 663 b 410 1024 407 776 408 918 b 383 1050 410 1042 401 1050 l 117 1051 b 89 1025 99 1051 89 1043 b 92 26 82 782 85 271 b 119 0 93 8 101 0 z "},"L":{"ha":978,"x_min":0,"x_max":0,"o":"m 118 0 l 921 0 b 949 26 939 0 949 8 l 949 229 b 921 256 949 247 940 256 b 425 251 807 257 569 251 b 403 274 411 251 403 258 b 408 1024 401 475 408 838 b 382 1050 408 1042 401 1050 l 118 1050 b 90 1024 100 1050 90 1042 b 90 26 82 749 82 283 b 118 0 90 8 99 0 z "},"M":{"ha":1522,"x_min":0,"x_max":0,"o":"m 117 0 l 356 0 b 383 26 374 0 383 8 l 382 543 b 397 556 381 569 388 572 b 625 25 458 408 546 199 b 665 0 633 8 646 0 l 839 0 b 878 26 858 0 871 8 b 1094 561 938 165 1033 404 b 1113 567 1103 586 1110 586 l 1113 26 b 1139 0 1113 8 1121 0 l 1404 0 b 1432 26 1422 0 1432 8 b 1432 1024 1439 263 1439 797 b 1404 1050 1432 1042 1424 1050 l 1078 1050 b 1039 1025 1058 1050 1046 1042 b 788 432 968 860 843 569 b 771 415 782 421 781 415 b 757 432 764 415 760 422 b 507 1025 694 582 588 838 b 468 1050 500 1042 488 1050 l 117 1050 b 89 1024 100 1050 90 1043 b 89 26 83 783 83 260 b 117 0 90 8 99 0 z "},"N":{"ha":1247,"x_min":0,"x_max":0,"o":"m 115 -1 b 375 -1 192 -7 308 -4 b 401 26 393 0 401 8 b 394 539 401 194 394 406 b 417 554 393 563 404 567 b 815 22 526 407 707 161 b 861 -1 826 7 842 0 b 1132 -1 943 -4 1061 -4 b 1160 26 1150 0 1158 8 b 1161 1024 1165 271 1165 782 b 1133 1051 1161 1042 1153 1051 b 875 1051 1064 1054 947 1056 b 847 1024 857 1051 849 1043 l 850 522 b 828 506 851 497 840 493 b 440 1028 742 613 560 871 b 394 1051 428 1043 414 1051 b 115 1051 321 1054 225 1053 b 88 1024 97 1050 88 1043 b 88 26 82 750 82 289 b 115 -1 88 8 96 0 z "},"Ñ":{"ha":1247,"x_min":0,"x_max":0,"o":"m 115 -1 b 375 -1 192 -7 308 -4 b 401 26 393 0 401 8 b 394 539 401 194 394 406 b 417 554 393 563 404 567 b 815 22 526 407 707 161 b 861 -1 826 7 842 0 b 1132 -1 943 -4 1061 -4 b 1160 26 1150 0 1158 8 b 1161 1024 1165 271 1165 782 b 1133 1051 1161 1042 1153 1051 b 875 1051 1064 1054 947 1056 b 847 1024 857 1051 849 1043 l 850 522 b 828 506 851 497 840 493 b 440 1028 742 613 560 871 b 394 1051 428 1043 414 1051 b 115 1051 321 1054 225 1053 b 88 1024 97 1050 88 1043 b 88 26 82 750 82 289 b 115 -1 88 8 96 0 z m 761 1111 b 858 1147 801 1111 833 1124 b 876 1199 871 1163 876 1179 l 876 1303 b 853 1314 876 1325 869 1329 b 767 1286 825 1292 803 1286 b 658 1313 729 1286 696 1299 b 522 1344 619 1328 575 1344 b 424 1308 483 1344 450 1332 b 404 1258 410 1293 404 1278 l 404 1153 b 429 1140 404 1129 413 1126 b 517 1168 460 1163 482 1168 b 626 1142 556 1168 588 1156 b 761 1111 665 1126 710 1111 z "},"O":{"ha":1164,"x_min":0,"x_max":0,"o":"m 586 -19 b 1018 61 847 -19 963 1 b 1115 514 1079 126 1115 244 b 1014 989 1115 792 1078 924 b 585 1071 957 1046 847 1071 b 154 988 315 1071 208 1044 b 49 514 90 921 49 792 b 149 61 49 247 83 126 b 586 -19 204 4 315 -19 z m 583 226 b 422 260 485 226 442 239 b 381 514 394 286 381 347 b 424 792 381 696 396 764 b 582 825 447 815 488 825 b 743 790 681 825 721 813 b 785 514 768 765 785 697 b 744 261 785 347 769 286 b 583 226 724 240 682 226 z "},"Ó":{"ha":1164,"x_min":0,"x_max":0,"o":"m 586 -19 b 1018 61 847 -19 963 1 b 1115 514 1079 126 1115 244 b 1014 989 1115 792 1078 924 b 585 1071 957 1046 847 1071 b 154 988 315 1071 208 1044 b 49 514 90 921 49 792 b 149 61 49 247 83 126 b 586 -19 204 4 315 -19 z m 583 226 b 422 260 485 226 442 239 b 381 514 394 286 381 347 b 424 792 381 696 396 764 b 582 825 447 815 488 825 b 743 790 681 825 721 813 b 785 514 768 765 785 697 b 744 261 785 347 769 286 b 583 226 724 240 682 226 z m 472 1132 l 597 1132 b 642 1156 617 1132 631 1139 l 781 1376 b 765 1404 793 1394 788 1404 l 603 1404 b 563 1379 583 1404 571 1396 l 453 1161 b 472 1132 443 1142 449 1132 z "},"Ô":{"ha":1164,"x_min":0,"x_max":0,"o":"m 586 -19 b 1018 61 847 -19 963 1 b 1115 514 1079 126 1115 244 b 1014 989 1115 792 1078 924 b 585 1071 957 1046 847 1071 b 154 988 315 1071 208 1044 b 49 514 90 921 49 792 b 149 61 49 247 83 126 b 586 -19 204 4 315 -19 z m 583 226 b 422 260 485 226 442 239 b 381 514 394 286 381 347 b 424 792 381 696 396 764 b 582 825 447 815 488 825 b 743 790 681 825 721 813 b 785 514 768 765 785 697 b 744 261 785 347 769 286 b 583 226 724 240 682 226 z m 469 1378 l 313 1158 b 326 1132 299 1140 303 1132 l 465 1132 b 510 1154 485 1132 499 1139 l 582 1250 l 651 1154 b 696 1132 663 1139 676 1132 l 832 1132 b 847 1158 856 1132 860 1140 l 697 1378 b 653 1401 686 1394 672 1401 l 514 1401 b 469 1378 494 1401 481 1394 z "},"Ö":{"ha":1164,"x_min":0,"x_max":0,"o":"m 586 -19 b 1018 61 847 -19 963 1 b 1115 514 1079 126 1115 244 b 1014 989 1115 792 1078 924 b 585 1071 957 1046 847 1071 b 154 988 315 1071 208 1044 b 49 514 90 921 49 792 b 149 61 49 247 83 126 b 586 -19 204 4 315 -19 z m 583 226 b 422 260 485 226 442 239 b 381 514 394 286 381 347 b 424 792 381 696 396 764 b 582 825 447 815 488 825 b 743 790 681 825 721 813 b 785 514 768 765 785 697 b 744 261 785 347 769 286 b 583 226 724 240 682 226 z m 640 1138 l 813 1138 b 839 1164 829 1138 839 1146 l 839 1326 b 813 1353 839 1343 831 1353 l 640 1353 b 614 1326 622 1353 614 1344 l 614 1164 b 640 1138 614 1146 621 1138 z m 360 1138 l 529 1138 b 556 1164 547 1138 556 1146 l 556 1326 b 529 1353 556 1343 547 1353 l 360 1353 b 333 1326 342 1353 333 1344 l 333 1164 b 360 1138 333 1146 340 1138 z "},"Ò":{"ha":1164,"x_min":0,"x_max":0,"o":"m 586 -19 b 1018 61 847 -19 963 1 b 1115 514 1079 126 1115 244 b 1014 989 1115 792 1078 924 b 585 1071 957 1046 847 1071 b 154 988 315 1071 208 1044 b 49 514 90 921 49 792 b 149 61 49 247 83 126 b 586 -19 204 4 315 -19 z m 583 226 b 422 260 485 226 442 239 b 381 514 394 286 381 347 b 424 792 381 696 396 764 b 582 825 447 815 488 825 b 743 790 681 825 721 813 b 785 514 768 765 785 697 b 744 261 785 347 769 286 b 583 226 724 240 682 226 z m 725 1161 l 619 1378 b 579 1404 611 1396 599 1404 l 413 1404 b 396 1375 389 1404 385 1394 l 532 1156 b 575 1132 543 1139 556 1132 l 707 1132 b 725 1161 729 1132 736 1142 z "},"Ø":{"ha":1164,"x_min":0,"x_max":0,"o":"m 586 -19 b 1018 61 847 -19 963 1 b 1115 514 1079 126 1115 244 b 1014 989 1115 792 1078 924 b 881 1050 986 1017 946 1038 l 915 1136 b 894 1167 924 1157 918 1167 l 799 1167 b 758 1140 779 1167 767 1158 l 728 1068 b 585 1071 686 1069 639 1071 b 154 988 315 1071 208 1044 b 49 514 90 921 49 792 b 149 61 49 247 83 126 b 288 0 176 32 218 13 l 246 -100 b 265 -131 236 -121 243 -131 l 364 -131 b 403 -104 383 -131 396 -122 l 439 -17 b 586 -19 482 -18 531 -19 z m 583 226 l 540 228 l 761 761 b 785 514 775 724 785 650 b 744 261 785 347 769 286 b 583 226 724 240 682 226 z m 381 514 b 424 792 381 696 396 764 b 582 825 447 815 488 825 l 628 824 l 406 285 b 381 514 389 321 381 386 z "},"Õ":{"ha":1164,"x_min":0,"x_max":0,"o":"m 586 -19 b 1018 61 847 -19 963 1 b 1115 514 1079 126 1115 244 b 1014 989 1115 792 1078 924 b 585 1071 957 1046 847 1071 b 154 988 315 1071 208 1044 b 49 514 90 921 49 792 b 149 61 49 247 83 126 b 586 -19 204 4 315 -19 z m 583 226 b 422 260 485 226 442 239 b 381 514 394 286 381 347 b 424 792 381 696 396 764 b 582 825 447 815 488 825 b 743 790 681 825 721 813 b 785 514 768 765 785 697 b 744 261 785 347 769 286 b 583 226 724 240 682 226 z m 725 1111 b 822 1147 765 1111 797 1124 b 840 1199 835 1163 840 1179 l 840 1303 b 817 1314 840 1325 833 1329 b 731 1286 789 1292 767 1286 b 622 1313 693 1286 660 1299 b 486 1344 583 1328 539 1344 b 388 1308 447 1344 414 1332 b 368 1258 374 1293 368 1278 l 368 1153 b 393 1140 368 1129 376 1126 b 481 1168 424 1163 446 1168 b 590 1142 519 1168 551 1156 b 725 1111 629 1126 674 1111 z "},"Œ":{"ha":1711,"x_min":0,"x_max":0,"o":"m 586 -19 b 888 0 722 -19 818 -14 l 1622 0 b 1649 26 1640 0 1649 8 l 1649 218 b 1622 244 1649 236 1640 244 b 1131 240 1511 244 1265 240 b 1108 263 1117 240 1108 247 l 1107 324 l 1114 411 b 1131 417 1117 415 1122 417 l 1599 415 b 1626 443 1617 415 1626 424 l 1626 615 b 1599 643 1626 633 1618 643 l 1131 643 b 1111 651 1122 643 1115 646 l 1107 708 l 1108 788 b 1131 810 1108 801 1115 810 b 1619 804 1265 808 1479 804 b 1646 831 1638 804 1646 813 l 1647 1024 b 1621 1050 1647 1042 1639 1050 l 882 1050 b 585 1071 814 1064 719 1071 b 154 988 315 1071 208 1044 b 49 514 90 921 49 792 b 149 61 49 247 83 126 b 586 -19 204 4 315 -19 z m 583 226 b 422 260 485 226 442 239 b 381 514 394 286 381 347 b 424 792 381 696 396 764 b 582 825 447 815 488 825 b 743 790 681 825 721 813 b 785 514 768 765 785 697 b 744 261 785 347 769 286 b 583 226 724 240 682 226 z "},"P":{"ha":1104,"x_min":0,"x_max":0,"o":"m 114 0 l 383 0 b 410 26 401 0 410 8 l 408 265 b 429 286 408 279 415 286 l 675 286 b 1000 379 858 286 936 315 b 1076 675 1047 426 1076 521 b 1000 974 1076 831 1047 928 b 657 1051 942 1033 863 1051 l 115 1051 b 88 1025 97 1051 88 1044 b 86 26 83 799 83 251 b 114 0 88 8 96 0 z m 403 549 l 404 790 b 428 811 406 804 413 811 l 642 811 b 728 788 689 811 711 804 b 757 660 744 771 757 738 b 729 550 757 588 746 565 b 643 526 715 535 689 526 l 425 526 b 403 549 411 526 403 533 z "},"Q":{"ha":1150,"x_min":0,"x_max":0,"o":"m 769 -315 b 983 -310 864 -315 931 -312 b 1010 -282 1001 -308 1010 -300 l 1010 -121 b 982 -94 1010 -103 1001 -94 l 799 -97 b 742 -58 751 -97 742 -87 l 742 -4 b 1018 72 896 4 975 26 b 1115 517 1079 136 1115 251 b 1014 983 1115 789 1078 919 b 585 1064 957 1039 847 1064 b 154 982 315 1064 208 1038 b 49 517 90 917 49 789 b 149 72 49 254 83 136 b 418 -3 190 31 265 6 l 418 -46 b 769 -315 418 -254 485 -315 z m 583 235 b 422 267 485 235 442 247 b 381 517 394 293 381 353 b 424 789 381 696 396 763 b 582 822 447 813 488 822 b 743 788 681 822 721 810 b 785 517 768 764 785 697 b 744 268 785 353 769 293 b 583 235 724 249 682 235 z "},"R":{"ha":1147,"x_min":0,"x_max":0,"o":"m 114 0 l 379 0 b 406 26 397 0 406 8 l 406 246 b 428 267 406 260 413 267 l 644 267 b 731 243 692 267 715 260 b 756 157 751 222 756 189 l 756 26 b 782 0 756 8 764 0 l 1047 0 b 1074 26 1064 0 1074 8 l 1075 172 b 1017 358 1075 267 1058 324 b 985 403 997 376 985 386 b 1014 450 985 421 1000 435 b 1097 690 1063 504 1097 554 b 1025 975 1097 851 1069 931 b 726 1051 969 1031 917 1051 l 114 1051 b 86 1025 96 1051 88 1044 b 86 26 83 796 83 256 b 114 0 88 8 96 0 z m 403 533 l 404 786 b 428 808 406 800 413 808 l 643 808 b 739 779 692 808 722 799 b 765 665 758 758 765 719 b 736 539 765 593 757 558 b 650 511 719 521 690 511 l 425 511 b 403 533 411 511 403 518 z "},"S":{"ha":1088,"x_min":0,"x_max":0,"o":"m 569 -21 b 975 61 819 -19 919 6 b 1044 300 1021 107 1044 185 b 972 579 1044 451 1028 521 b 610 671 919 635 838 647 b 385 714 431 689 403 696 b 368 774 372 726 368 747 b 386 832 368 796 374 819 b 542 858 404 850 439 857 b 694 829 646 860 678 846 b 722 763 706 819 714 799 b 754 738 726 746 736 738 l 1015 740 b 1039 767 1032 740 1040 749 b 967 993 1029 876 1007 951 b 540 1069 911 1050 808 1069 b 122 985 285 1069 178 1040 b 51 750 78 939 51 858 b 113 507 51 626 71 549 b 458 410 168 450 276 426 b 704 367 632 393 681 389 b 726 289 719 351 726 325 b 708 221 726 257 722 235 b 554 193 690 203 653 193 b 401 224 453 193 419 204 b 369 308 386 239 379 261 b 338 335 367 326 356 335 l 74 336 b 49 310 56 336 47 328 b 119 64 60 186 81 104 b 569 -21 179 4 297 -21 z "},"ẞ":{"ha":2176,"x_min":0,"x_max":0,"o":"m 569 -21 b 975 61 819 -19 919 6 b 1044 300 1021 107 1044 185 b 972 579 1044 451 1028 521 b 610 671 919 635 838 647 b 385 714 431 689 403 696 b 368 774 372 726 368 747 b 386 832 368 796 374 819 b 542 858 404 850 439 857 b 694 829 646 860 678 846 b 722 763 706 819 714 799 b 754 738 726 746 736 738 l 1015 740 b 1039 767 1032 740 1040 749 b 967 993 1029 876 1007 951 b 540 1069 911 1050 808 1069 b 122 985 285 1069 178 1040 b 51 750 78 939 51 858 b 113 507 51 626 71 549 b 458 410 168 450 276 426 b 704 367 632 393 681 389 b 726 289 719 351 726 325 b 708 221 726 257 722 235 b 554 193 690 203 653 193 b 401 224 453 193 419 204 b 369 308 386 239 379 261 b 338 335 367 326 356 335 l 74 336 b 49 310 56 336 47 328 b 119 64 60 186 81 104 b 569 -21 179 4 297 -21 z m 1658 -21 b 2064 61 1908 -19 2008 6 b 2133 300 2110 107 2133 185 b 2061 579 2133 451 2117 521 b 1699 671 2008 635 1926 647 b 1474 714 1519 689 1492 696 b 1457 774 1461 726 1457 747 b 1475 832 1457 796 1463 819 b 1631 858 1493 850 1528 857 b 1783 829 1735 860 1767 846 b 1811 763 1794 819 1803 799 b 1843 738 1815 746 1825 738 l 2104 740 b 2128 767 2121 740 2129 749 b 2056 993 2118 876 2096 951 b 1629 1069 2000 1050 1897 1069 b 1211 985 1374 1069 1267 1040 b 1140 750 1167 939 1140 858 b 1201 507 1140 626 1160 549 b 1547 410 1257 450 1365 426 b 1793 367 1721 393 1769 389 b 1815 289 1808 351 1815 325 b 1797 221 1815 257 1811 235 b 1643 193 1779 203 1742 193 b 1490 224 1542 193 1508 204 b 1458 308 1475 239 1468 261 b 1426 335 1456 326 1444 335 l 1163 336 b 1138 310 1144 336 1136 328 b 1208 64 1149 186 1169 104 b 1658 -21 1268 4 1386 -21 z "},"T":{"ha":1092,"x_min":0,"x_max":0,"o":"m 421 0 b 690 0 517 -1 594 -1 b 718 26 708 0 718 8 b 714 785 717 247 714 549 b 735 806 714 799 721 806 l 1047 797 b 1075 824 1065 797 1075 806 l 1075 1025 b 1049 1053 1075 1043 1067 1051 b 44 1051 786 1056 360 1053 b 18 1025 26 1051 18 1044 l 18 825 b 44 799 18 807 26 799 l 375 806 b 397 785 389 806 397 799 b 394 26 396 564 392 239 b 421 0 394 8 403 0 z "},"U":{"ha":1150,"x_min":0,"x_max":0,"o":"m 579 -22 b 1008 75 839 -22 942 8 b 1076 365 1063 129 1076 189 b 1069 1025 1076 638 1072 868 b 1043 1053 1069 1043 1061 1053 b 776 1053 964 1056 850 1056 b 749 1025 758 1053 749 1044 l 750 379 b 726 268 750 307 743 283 b 579 231 706 247 668 231 b 426 267 478 231 449 244 b 406 378 413 282 406 304 l 408 1025 b 382 1053 408 1043 400 1053 b 111 1053 304 1056 190 1056 b 83 1025 93 1053 85 1044 b 74 372 79 861 74 642 b 146 76 74 200 90 133 b 579 -22 214 10 318 -22 z "},"Ú":{"ha":1150,"x_min":0,"x_max":0,"o":"m 579 -22 b 1008 75 839 -22 942 8 b 1076 365 1063 129 1076 189 b 1069 1025 1076 638 1072 868 b 1043 1053 1069 1043 1061 1053 b 776 1053 964 1056 850 1056 b 749 1025 758 1053 749 1044 l 750 379 b 726 268 750 307 743 283 b 579 231 706 247 668 231 b 426 267 478 231 449 244 b 406 378 413 282 406 304 l 408 1025 b 382 1053 408 1043 400 1053 b 111 1053 304 1056 190 1056 b 83 1025 93 1053 85 1044 b 74 372 79 861 74 642 b 146 76 74 200 90 133 b 579 -22 214 10 318 -22 z m 465 1133 l 590 1133 b 635 1157 610 1133 624 1140 l 774 1378 b 758 1406 786 1396 781 1406 l 596 1406 b 556 1381 576 1406 564 1397 l 446 1163 b 465 1133 436 1143 442 1133 z "},"Û":{"ha":1150,"x_min":0,"x_max":0,"o":"m 579 -22 b 1008 75 839 -22 942 8 b 1076 365 1063 129 1076 189 b 1069 1025 1076 638 1072 868 b 1043 1053 1069 1043 1061 1053 b 776 1053 964 1056 850 1056 b 749 1025 758 1053 749 1044 l 750 379 b 726 268 750 307 743 283 b 579 231 706 247 668 231 b 426 267 478 231 449 244 b 406 378 413 282 406 304 l 408 1025 b 382 1053 408 1043 400 1053 b 111 1053 304 1056 190 1056 b 83 1025 93 1053 85 1044 b 74 372 79 861 74 642 b 146 76 74 200 90 133 b 579 -22 214 10 318 -22 z m 463 1379 l 306 1160 b 319 1133 292 1142 296 1133 l 458 1133 b 503 1156 478 1133 492 1140 l 575 1251 l 644 1156 b 689 1133 656 1140 669 1133 l 825 1133 b 840 1160 849 1133 853 1142 l 690 1379 b 646 1403 679 1396 665 1403 l 507 1403 b 463 1379 488 1403 474 1396 z "},"Ü":{"ha":1150,"x_min":0,"x_max":0,"o":"m 579 -22 b 1008 75 839 -22 942 8 b 1076 365 1063 129 1076 189 b 1069 1025 1076 638 1072 868 b 1043 1053 1069 1043 1061 1053 b 776 1053 964 1056 850 1056 b 749 1025 758 1053 749 1044 l 750 379 b 726 268 750 307 743 283 b 579 231 706 247 668 231 b 426 267 478 231 449 244 b 406 378 413 282 406 304 l 408 1025 b 382 1053 408 1043 400 1053 b 111 1053 304 1056 190 1056 b 83 1025 93 1053 85 1044 b 74 372 79 861 74 642 b 146 76 74 200 90 133 b 579 -22 214 10 318 -22 z m 632 1139 l 804 1139 b 831 1165 821 1139 831 1147 l 831 1328 b 804 1354 831 1344 822 1354 l 632 1354 b 606 1328 614 1354 606 1346 l 606 1165 b 632 1139 606 1147 613 1139 z m 351 1139 l 521 1139 b 547 1165 539 1139 547 1147 l 547 1328 b 521 1354 547 1344 539 1354 l 351 1354 b 325 1328 333 1354 325 1346 l 325 1165 b 351 1139 325 1147 332 1139 z "},"Ù":{"ha":1150,"x_min":0,"x_max":0,"o":"m 579 -22 b 1008 75 839 -22 942 8 b 1076 365 1063 129 1076 189 b 1069 1025 1076 638 1072 868 b 1043 1053 1069 1043 1061 1053 b 776 1053 964 1056 850 1056 b 749 1025 758 1053 749 1044 l 750 379 b 726 268 750 307 743 283 b 579 231 706 247 668 231 b 426 267 478 231 449 244 b 406 378 413 282 406 304 l 408 1025 b 382 1053 408 1043 400 1053 b 111 1053 304 1056 190 1056 b 83 1025 93 1053 85 1044 b 74 372 79 861 74 642 b 146 76 74 200 90 133 b 579 -22 214 10 318 -22 z m 718 1163 l 613 1379 b 572 1406 604 1397 592 1406 l 406 1406 b 389 1376 382 1406 378 1396 l 525 1157 b 568 1133 536 1140 549 1133 l 700 1133 b 718 1163 722 1133 729 1143 z "},"V":{"ha":1140,"x_min":0,"x_max":0,"o":"m 418 -1 b 751 -1 535 -4 633 -4 b 790 25 771 -1 783 7 b 1125 1019 906 324 1014 681 b 1103 1051 1132 1040 1125 1050 l 839 1051 b 803 1024 821 1050 808 1042 b 603 390 743 831 653 549 b 583 365 596 369 593 365 b 563 389 574 365 568 372 b 357 1024 515 539 425 818 b 321 1051 351 1042 340 1050 b 39 1051 233 1053 117 1053 b 15 1019 17 1051 8 1040 b 378 25 119 694 247 322 b 418 -1 386 7 399 -1 z "},"W":{"ha":1761,"x_min":0,"x_max":0,"o":"m 356 -1 b 629 -1 428 -4 558 -4 b 665 26 649 0 660 8 b 851 617 719 196 803 457 b 876 626 857 642 868 643 b 1101 26 928 472 1039 182 b 1139 -1 1108 8 1119 0 b 1419 -1 1210 -4 1339 -4 b 1456 28 1439 0 1450 8 b 1733 1018 1515 242 1674 754 b 1708 1051 1739 1040 1731 1051 b 1478 1051 1642 1054 1539 1054 b 1443 1022 1458 1051 1447 1042 b 1286 435 1401 843 1326 572 b 1263 426 1281 410 1271 408 b 1058 1024 1218 569 1104 882 b 1021 1053 1051 1042 1040 1051 b 783 1051 960 1054 850 1054 b 747 1024 764 1051 753 1042 b 558 432 710 894 610 590 b 533 425 551 408 540 407 b 361 1022 493 569 397 882 b 326 1051 357 1042 346 1051 b 56 1051 253 1054 129 1054 b 29 1018 32 1051 24 1040 b 319 26 88 765 243 269 b 356 -1 325 8 336 0 z "},"Ẃ":{"ha":1761,"x_min":0,"x_max":0,"o":"m 356 -1 b 629 -1 428 -4 558 -4 b 665 26 649 0 660 8 b 851 617 719 196 803 457 b 876 626 857 642 868 643 b 1101 26 928 472 1039 182 b 1139 -1 1108 8 1119 0 b 1419 -1 1210 -4 1339 -4 b 1456 28 1439 0 1450 8 b 1733 1018 1515 242 1674 754 b 1708 1051 1739 1040 1731 1051 b 1478 1051 1642 1054 1539 1054 b 1443 1022 1458 1051 1447 1042 b 1286 435 1401 843 1326 572 b 1263 426 1281 410 1271 408 b 1058 1024 1218 569 1104 882 b 1021 1053 1051 1042 1040 1051 b 783 1051 960 1054 850 1054 b 747 1024 764 1051 753 1042 b 558 432 710 894 610 590 b 533 425 551 408 540 407 b 361 1022 493 569 397 882 b 326 1051 357 1042 346 1051 b 56 1051 253 1054 129 1054 b 29 1018 32 1051 24 1040 b 319 26 88 765 243 269 b 356 -1 325 8 336 0 z m 758 1132 l 883 1132 b 928 1156 903 1132 917 1139 l 1067 1376 b 1051 1404 1079 1394 1074 1404 l 889 1404 b 849 1379 869 1404 857 1396 l 739 1161 b 758 1132 729 1142 735 1132 z "},"Ŵ":{"ha":1761,"x_min":0,"x_max":0,"o":"m 356 -1 b 629 -1 428 -4 558 -4 b 665 26 649 0 660 8 b 851 617 719 196 803 457 b 876 626 857 642 868 643 b 1101 26 928 472 1039 182 b 1139 -1 1108 8 1119 0 b 1419 -1 1210 -4 1339 -4 b 1456 28 1439 0 1450 8 b 1733 1018 1515 242 1674 754 b 1708 1051 1739 1040 1731 1051 b 1478 1051 1642 1054 1539 1054 b 1443 1022 1458 1051 1447 1042 b 1286 435 1401 843 1326 572 b 1263 426 1281 410 1271 408 b 1058 1024 1218 569 1104 882 b 1021 1053 1051 1042 1040 1051 b 783 1051 960 1054 850 1054 b 747 1024 764 1051 753 1042 b 558 432 710 894 610 590 b 533 425 551 408 540 407 b 361 1022 493 569 397 882 b 326 1051 357 1042 346 1051 b 56 1051 253 1054 129 1054 b 29 1018 32 1051 24 1040 b 319 26 88 765 243 269 b 356 -1 325 8 336 0 z m 754 1378 l 597 1158 b 611 1132 583 1140 588 1132 l 750 1132 b 794 1154 769 1132 783 1139 l 867 1250 l 936 1154 b 981 1132 947 1139 961 1132 l 1117 1132 b 1132 1158 1140 1132 1144 1140 l 982 1378 b 938 1401 971 1394 957 1401 l 799 1401 b 754 1378 779 1401 765 1394 z "},"Ẅ":{"ha":1761,"x_min":0,"x_max":0,"o":"m 356 -1 b 629 -1 428 -4 558 -4 b 665 26 649 0 660 8 b 851 617 719 196 803 457 b 876 626 857 642 868 643 b 1101 26 928 472 1039 182 b 1139 -1 1108 8 1119 0 b 1419 -1 1210 -4 1339 -4 b 1456 28 1439 0 1450 8 b 1733 1018 1515 242 1674 754 b 1708 1051 1739 1040 1731 1051 b 1478 1051 1642 1054 1539 1054 b 1443 1022 1458 1051 1447 1042 b 1286 435 1401 843 1326 572 b 1263 426 1281 410 1271 408 b 1058 1024 1218 569 1104 882 b 1021 1053 1051 1042 1040 1051 b 783 1051 960 1054 850 1054 b 747 1024 764 1051 753 1042 b 558 432 710 894 610 590 b 533 425 551 408 540 407 b 361 1022 493 569 397 882 b 326 1051 357 1042 346 1051 b 56 1051 253 1054 129 1054 b 29 1018 32 1051 24 1040 b 319 26 88 765 243 269 b 356 -1 325 8 336 0 z m 925 1138 l 1097 1138 b 1124 1164 1114 1138 1124 1146 l 1124 1326 b 1097 1353 1124 1343 1115 1353 l 925 1353 b 899 1326 907 1353 899 1344 l 899 1164 b 925 1138 899 1146 906 1138 z m 644 1138 l 814 1138 b 840 1164 832 1138 840 1146 l 840 1326 b 814 1353 840 1343 832 1353 l 644 1353 b 618 1326 626 1353 618 1344 l 618 1164 b 644 1138 618 1146 625 1138 z "},"Ẁ":{"ha":1761,"x_min":0,"x_max":0,"o":"m 356 -1 b 629 -1 428 -4 558 -4 b 665 26 649 0 660 8 b 851 617 719 196 803 457 b 876 626 857 642 868 643 b 1101 26 928 472 1039 182 b 1139 -1 1108 8 1119 0 b 1419 -1 1210 -4 1339 -4 b 1456 28 1439 0 1450 8 b 1733 1018 1515 242 1674 754 b 1708 1051 1739 1040 1731 1051 b 1478 1051 1642 1054 1539 1054 b 1443 1022 1458 1051 1447 1042 b 1286 435 1401 843 1326 572 b 1263 426 1281 410 1271 408 b 1058 1024 1218 569 1104 882 b 1021 1053 1051 1042 1040 1051 b 783 1051 960 1054 850 1054 b 747 1024 764 1051 753 1042 b 558 432 710 894 610 590 b 533 425 551 408 540 407 b 361 1022 493 569 397 882 b 326 1051 357 1042 346 1051 b 56 1051 253 1054 129 1054 b 29 1018 32 1051 24 1040 b 319 26 88 765 243 269 b 356 -1 325 8 336 0 z m 1011 1161 l 906 1378 b 865 1404 897 1396 885 1404 l 699 1404 b 682 1375 675 1404 671 1394 l 818 1156 b 861 1132 829 1139 842 1132 l 993 1132 b 1011 1161 1015 1132 1022 1142 z "},"X":{"ha":1107,"x_min":0,"x_max":0,"o":"m 44 0 l 321 0 b 360 26 340 0 353 8 b 510 328 397 113 463 239 b 549 335 521 349 539 349 b 719 25 604 242 681 101 b 760 -1 728 8 740 0 b 1058 -1 844 -4 974 -3 b 1078 31 1082 0 1088 10 b 803 524 1008 178 881 393 b 804 568 793 539 794 553 b 1083 1021 879 675 1014 886 b 1065 1050 1093 1042 1088 1050 l 797 1050 b 757 1025 778 1050 765 1043 b 614 778 726 967 668 856 b 569 772 601 758 581 760 b 419 1025 521 843 458 950 b 379 1051 411 1043 399 1051 b 61 1051 290 1054 142 1054 b 43 1021 39 1051 33 1042 b 293 599 100 911 222 710 b 294 553 303 583 303 569 b 25 31 213 406 94 181 b 44 0 15 10 21 0 z "},"Y":{"ha":1121,"x_min":0,"x_max":0,"o":"m 436 0 b 710 0 510 -1 638 -1 b 736 26 726 0 736 8 b 729 369 736 103 735 246 b 742 408 729 383 732 397 b 1118 1019 907 632 1044 856 b 1097 1051 1126 1040 1121 1051 b 842 1051 1017 1054 908 1054 b 800 1025 822 1051 808 1043 b 607 717 756 940 675 808 b 561 710 594 697 574 699 b 361 1025 492 806 415 924 b 319 1051 351 1043 339 1050 b 24 1051 228 1053 135 1053 b 4 1019 1 1050 -6 1040 b 394 406 78 863 261 593 b 407 365 403 393 407 381 l 408 26 b 436 0 408 10 417 0 z "},"Ý":{"ha":1121,"x_min":0,"x_max":0,"o":"m 436 0 b 710 0 510 -1 638 -1 b 736 26 726 0 736 8 b 729 369 736 103 735 246 b 742 408 729 383 732 397 b 1118 1019 907 632 1044 856 b 1097 1051 1126 1040 1121 1051 b 842 1051 1017 1054 908 1054 b 800 1025 822 1051 808 1043 b 607 717 756 940 675 808 b 561 710 594 697 574 699 b 361 1025 492 806 415 924 b 319 1051 351 1043 339 1050 b 24 1051 228 1053 135 1053 b 4 1019 1 1050 -6 1040 b 394 406 78 863 261 593 b 407 365 403 393 407 381 l 408 26 b 436 0 408 10 417 0 z m 442 1132 l 567 1132 b 611 1156 586 1132 600 1139 l 750 1376 b 735 1404 763 1394 757 1404 l 572 1404 b 532 1379 553 1404 540 1396 l 422 1161 b 442 1132 413 1142 418 1132 z "},"Ŷ":{"ha":1121,"x_min":0,"x_max":0,"o":"m 436 0 b 710 0 510 -1 638 -1 b 736 26 726 0 736 8 b 729 369 736 103 735 246 b 742 408 729 383 732 397 b 1118 1019 907 632 1044 856 b 1097 1051 1126 1040 1121 1051 b 842 1051 1017 1054 908 1054 b 800 1025 822 1051 808 1043 b 607 717 756 940 675 808 b 561 710 594 697 574 699 b 361 1025 492 806 415 924 b 319 1051 351 1043 339 1050 b 24 1051 228 1053 135 1053 b 4 1019 1 1050 -6 1040 b 394 406 78 863 261 593 b 407 365 403 393 407 381 l 408 26 b 436 0 408 10 417 0 z m 438 1378 l 281 1158 b 294 1132 267 1140 271 1132 l 433 1132 b 478 1154 453 1132 467 1139 l 550 1250 l 619 1154 b 664 1132 631 1139 644 1132 l 800 1132 b 815 1158 824 1132 828 1140 l 665 1378 b 621 1401 654 1394 640 1401 l 482 1401 b 438 1378 463 1401 449 1394 z "},"Ÿ":{"ha":1121,"x_min":0,"x_max":0,"o":"m 436 0 b 710 0 510 -1 638 -1 b 736 26 726 0 736 8 b 729 369 736 103 735 246 b 742 408 729 383 732 397 b 1118 1019 907 632 1044 856 b 1097 1051 1126 1040 1121 1051 b 842 1051 1017 1054 908 1054 b 800 1025 822 1051 808 1043 b 607 717 756 940 675 808 b 561 710 594 697 574 699 b 361 1025 492 806 415 924 b 319 1051 351 1043 339 1050 b 24 1051 228 1053 135 1053 b 4 1019 1 1050 -6 1040 b 394 406 78 863 261 593 b 407 365 403 393 407 381 l 408 26 b 436 0 408 10 417 0 z m 608 1138 l 781 1138 b 807 1164 797 1138 807 1146 l 807 1326 b 781 1353 807 1343 799 1353 l 608 1353 b 582 1326 590 1353 582 1344 l 582 1164 b 608 1138 582 1146 589 1138 z m 328 1138 l 497 1138 b 524 1164 515 1138 524 1146 l 524 1326 b 497 1353 524 1343 515 1353 l 328 1353 b 301 1326 310 1353 301 1344 l 301 1164 b 328 1138 301 1146 308 1138 z "},"Ỳ":{"ha":1121,"x_min":0,"x_max":0,"o":"m 436 0 b 710 0 510 -1 638 -1 b 736 26 726 0 736 8 b 729 369 736 103 735 246 b 742 408 729 383 732 397 b 1118 1019 907 632 1044 856 b 1097 1051 1126 1040 1121 1051 b 842 1051 1017 1054 908 1054 b 800 1025 822 1051 808 1043 b 607 717 756 940 675 808 b 561 710 594 697 574 699 b 361 1025 492 806 415 924 b 319 1051 351 1043 339 1050 b 24 1051 228 1053 135 1053 b 4 1019 1 1050 -6 1040 b 394 406 78 863 261 593 b 407 365 403 393 407 381 l 408 26 b 436 0 408 10 417 0 z m 694 1161 l 589 1378 b 549 1404 581 1396 568 1404 l 382 1404 b 365 1375 358 1404 354 1394 l 501 1156 b 544 1132 513 1139 525 1132 l 676 1132 b 694 1161 699 1132 706 1142 z "},"Z":{"ha":978,"x_min":0,"x_max":0,"o":"m 78 0 b 901 0 179 -1 511 0 b 929 26 919 0 929 8 l 931 231 b 904 257 931 249 922 258 l 478 254 b 467 276 456 254 453 260 b 892 757 601 431 750 593 b 911 807 906 772 911 788 l 911 1024 b 885 1050 911 1042 903 1050 b 76 1050 649 1050 317 1051 b 49 1024 58 1050 49 1042 l 49 825 b 76 799 49 807 57 799 l 482 800 b 492 778 503 800 507 793 b 71 297 361 636 204 451 b 51 249 57 283 51 268 l 51 26 b 78 0 51 10 60 0 z "},"a":{"ha":974,"x_min":0,"x_max":0,"o":"m 340 -14 b 601 64 481 -14 515 3 b 633 51 617 72 628 68 l 638 26 b 668 0 640 8 649 0 l 881 0 b 908 26 899 0 908 8 l 908 528 b 847 779 908 658 889 736 b 499 856 794 831 713 856 b 118 772 254 856 175 829 b 53 601 83 738 64 679 b 76 574 51 583 58 575 b 325 575 146 572 260 572 b 357 603 342 576 353 585 b 376 639 361 618 367 629 b 486 663 390 654 414 663 b 594 639 557 663 582 653 b 614 571 607 628 614 604 l 614 549 b 592 525 614 535 607 526 l 417 513 b 103 436 192 500 142 475 b 43 246 63 396 43 343 b 97 43 43 150 60 81 b 340 -14 136 4 201 -14 z m 432 185 b 354 201 389 185 367 189 b 336 256 343 211 336 228 b 353 314 336 283 340 300 b 472 340 367 328 392 335 l 592 349 b 614 329 606 350 614 343 b 569 228 613 272 600 254 b 432 185 531 197 489 185 z "},"á":{"ha":974,"x_min":0,"x_max":0,"o":"m 340 -14 b 601 64 481 -14 515 3 b 633 51 617 72 628 68 l 638 26 b 668 0 640 8 649 0 l 881 0 b 908 26 899 0 908 8 l 908 528 b 847 779 908 658 889 736 b 499 856 794 831 713 856 b 118 772 254 856 175 829 b 53 601 83 738 64 679 b 76 574 51 583 58 575 b 325 575 146 572 260 572 b 357 603 342 576 353 585 b 376 639 361 618 367 629 b 486 663 390 654 414 663 b 594 639 557 663 582 653 b 614 571 607 628 614 604 l 614 549 b 592 525 614 535 607 526 l 417 513 b 103 436 192 500 142 475 b 43 246 63 396 43 343 b 97 43 43 150 60 81 b 340 -14 136 4 201 -14 z m 432 185 b 354 201 389 185 367 189 b 336 256 343 211 336 228 b 353 314 336 283 340 300 b 472 340 367 328 392 335 l 592 349 b 614 329 606 350 614 343 b 569 228 613 272 600 254 b 432 185 531 197 489 185 z m 376 913 l 499 913 b 542 935 517 913 531 918 l 676 1149 b 663 1175 689 1167 683 1175 l 504 1175 b 464 1151 485 1175 472 1168 l 357 940 b 376 913 347 921 353 913 z "},"â":{"ha":974,"x_min":0,"x_max":0,"o":"m 340 -14 b 601 64 481 -14 515 3 b 633 51 617 72 628 68 l 638 26 b 668 0 640 8 649 0 l 881 0 b 908 26 899 0 908 8 l 908 528 b 847 779 908 658 889 736 b 499 856 794 831 713 856 b 118 772 254 856 175 829 b 53 601 83 738 64 679 b 76 574 51 583 58 575 b 325 575 146 572 260 572 b 357 603 342 576 353 585 b 376 639 361 618 367 629 b 486 663 390 654 414 663 b 594 639 557 663 582 653 b 614 571 607 628 614 604 l 614 549 b 592 525 614 535 607 526 l 417 513 b 103 436 192 500 142 475 b 43 246 63 396 43 343 b 97 43 43 150 60 81 b 340 -14 136 4 201 -14 z m 432 185 b 354 201 389 185 367 189 b 336 256 343 211 336 228 b 353 314 336 283 340 300 b 472 340 367 328 392 335 l 592 349 b 614 329 606 350 614 343 b 569 228 613 272 600 254 b 432 185 531 197 489 185 z m 372 1150 l 219 938 b 232 913 206 919 210 913 l 368 913 b 411 933 388 913 400 918 l 482 1026 l 550 933 b 593 913 561 918 574 913 l 726 913 b 740 938 749 913 753 919 l 594 1150 b 551 1172 583 1167 569 1172 l 415 1172 b 372 1150 396 1172 383 1167 z "},"ä":{"ha":974,"x_min":0,"x_max":0,"o":"m 340 -14 b 601 64 481 -14 515 3 b 633 51 617 72 628 68 l 638 26 b 668 0 640 8 649 0 l 881 0 b 908 26 899 0 908 8 l 908 528 b 847 779 908 658 889 736 b 499 856 794 831 713 856 b 118 772 254 856 175 829 b 53 601 83 738 64 679 b 76 574 51 583 58 575 b 325 575 146 572 260 572 b 357 603 342 576 353 585 b 376 639 361 618 367 629 b 486 663 390 654 414 663 b 594 639 557 663 582 653 b 614 571 607 628 614 604 l 614 549 b 592 525 614 535 607 526 l 417 513 b 103 436 192 500 142 475 b 43 246 63 396 43 343 b 97 43 43 150 60 81 b 340 -14 136 4 201 -14 z m 432 185 b 354 201 389 185 367 189 b 336 256 343 211 336 228 b 353 314 336 283 340 300 b 472 340 367 328 392 335 l 592 349 b 614 329 606 350 614 343 b 569 228 613 272 600 254 b 432 185 531 197 489 185 z m 538 917 l 706 917 b 732 943 722 917 732 925 l 732 1100 b 706 1126 732 1117 724 1126 l 538 1126 b 513 1100 521 1126 513 1118 l 513 943 b 538 917 513 925 519 917 z m 264 917 l 429 917 b 456 943 447 917 456 925 l 456 1100 b 429 1126 456 1117 447 1126 l 264 1126 b 239 1100 247 1126 239 1118 l 239 943 b 264 917 239 925 246 917 z "},"à":{"ha":974,"x_min":0,"x_max":0,"o":"m 340 -14 b 601 64 481 -14 515 3 b 633 51 617 72 628 68 l 638 26 b 668 0 640 8 649 0 l 881 0 b 908 26 899 0 908 8 l 908 528 b 847 779 908 658 889 736 b 499 856 794 831 713 856 b 118 772 254 856 175 829 b 53 601 83 738 64 679 b 76 574 51 583 58 575 b 325 575 146 572 260 572 b 357 603 342 576 353 585 b 376 639 361 618 367 629 b 486 663 390 654 414 663 b 594 639 557 663 582 653 b 614 571 607 628 614 604 l 614 549 b 592 525 614 535 607 526 l 417 513 b 103 436 192 500 142 475 b 43 246 63 396 43 343 b 97 43 43 150 60 81 b 340 -14 136 4 201 -14 z m 432 185 b 354 201 389 185 367 189 b 336 256 343 211 336 228 b 353 314 336 283 340 300 b 472 340 367 328 392 335 l 592 349 b 614 329 606 350 614 343 b 569 228 613 272 600 254 b 432 185 531 197 489 185 z m 622 940 l 519 1150 b 479 1175 511 1168 499 1175 l 317 1175 b 301 1147 294 1175 290 1167 l 433 935 b 476 913 444 918 457 913 l 604 913 b 622 940 626 913 633 921 z "},"å":{"ha":974,"x_min":0,"x_max":0,"o":"m 340 -14 b 601 64 481 -14 515 3 b 633 51 617 72 628 68 l 638 26 b 668 0 640 8 649 0 l 881 0 b 908 26 899 0 908 8 l 908 528 b 847 779 908 658 889 736 b 499 856 794 831 713 856 b 118 772 254 856 175 829 b 53 601 83 738 64 679 b 76 574 51 583 58 575 b 325 575 146 572 260 572 b 357 603 342 576 353 585 b 376 639 361 618 367 629 b 486 663 390 654 414 663 b 594 639 557 663 582 653 b 614 571 607 628 614 604 l 614 549 b 592 525 614 535 607 526 l 417 513 b 103 436 192 500 142 475 b 43 246 63 396 43 343 b 97 43 43 150 60 81 b 340 -14 136 4 201 -14 z m 432 185 b 354 201 389 185 367 189 b 336 256 343 211 336 228 b 353 314 336 283 340 300 b 472 340 367 328 392 335 l 592 349 b 614 329 606 350 614 343 b 569 228 613 272 600 254 b 432 185 531 197 489 185 z m 483 876 b 681 1057 597 876 681 954 b 483 1238 681 1161 597 1238 b 286 1057 368 1238 286 1161 b 483 876 286 954 368 876 z m 482 997 b 425 1057 450 997 425 1022 b 482 1118 425 1092 450 1118 b 540 1057 517 1118 542 1092 b 482 997 542 1022 517 997 z "},"ã":{"ha":974,"x_min":0,"x_max":0,"o":"m 340 -14 b 601 64 481 -14 515 3 b 633 51 617 72 628 68 l 638 26 b 668 0 640 8 649 0 l 881 0 b 908 26 899 0 908 8 l 908 528 b 847 779 908 658 889 736 b 499 856 794 831 713 856 b 118 772 254 856 175 829 b 53 601 83 738 64 679 b 76 574 51 583 58 575 b 325 575 146 572 260 572 b 357 603 342 576 353 585 b 376 639 361 618 367 629 b 486 663 390 654 414 663 b 594 639 557 663 582 653 b 614 571 607 628 614 604 l 614 549 b 592 525 614 535 607 526 l 417 513 b 103 436 192 500 142 475 b 43 246 63 396 43 343 b 97 43 43 150 60 81 b 340 -14 136 4 201 -14 z m 432 185 b 354 201 389 185 367 189 b 336 256 343 211 336 228 b 353 314 336 283 340 300 b 472 340 367 328 392 335 l 592 349 b 614 329 606 350 614 343 b 569 228 613 272 600 254 b 432 185 531 197 489 185 z m 624 892 b 718 926 663 892 693 904 b 736 976 731 942 736 958 l 736 1078 b 713 1088 736 1099 729 1103 b 628 1061 685 1067 664 1061 b 522 1086 592 1061 560 1074 b 390 1118 485 1101 442 1118 b 293 1083 351 1118 319 1106 b 275 1035 281 1068 275 1053 l 275 932 b 299 919 275 910 283 907 b 385 947 329 942 350 947 b 492 921 422 947 454 935 b 624 892 529 907 572 892 z "},"æ":{"ha":1547,"x_min":0,"x_max":0,"o":"m 340 -14 b 601 64 481 -14 515 3 b 633 51 617 72 628 68 l 638 26 b 668 0 640 8 649 0 l 789 0 b 1069 -19 847 -14 933 -19 b 1431 39 1303 -19 1386 -6 b 1507 242 1468 75 1493 136 b 1483 269 1508 258 1501 268 b 1240 272 1431 272 1342 272 b 1206 247 1222 272 1211 265 b 1183 203 1200 225 1196 214 b 1074 179 1169 189 1146 179 b 938 207 1000 179 957 189 b 908 324 922 224 913 256 l 908 331 b 929 346 910 342 917 346 l 1483 349 b 1510 376 1501 349 1510 357 b 1433 781 1513 625 1481 733 b 1065 851 1382 832 1289 851 b 774 825 917 851 831 843 b 499 856 718 846 635 856 b 118 772 254 856 175 829 b 53 601 83 738 64 679 b 76 574 51 583 58 575 b 325 575 146 572 260 572 b 357 603 342 576 353 585 b 376 639 361 618 367 629 b 486 663 390 654 414 663 b 594 639 557 663 582 653 b 614 571 607 628 614 604 l 614 549 b 592 525 614 535 607 526 l 417 513 b 103 436 192 500 142 475 b 43 246 63 396 43 343 b 97 43 43 150 60 81 b 340 -14 136 4 201 -14 z m 432 185 b 354 201 389 185 367 189 b 336 256 343 211 336 228 b 353 314 336 283 340 300 b 472 340 367 328 392 335 l 592 349 b 610 342 600 350 607 347 l 613 307 b 569 228 608 267 596 250 b 432 185 531 197 489 185 z m 913 542 b 940 628 919 592 929 617 b 1060 654 956 642 985 654 b 1183 629 1139 654 1167 644 b 1207 543 1194 618 1201 594 b 1188 522 1208 529 1203 522 l 932 519 b 913 542 918 519 911 526 z "},"b":{"ha":1011,"x_min":0,"x_max":0,"o":"m 642 -18 b 886 44 783 -18 847 4 b 969 433 936 96 969 201 b 890 790 969 647 939 740 b 644 853 850 829 786 853 b 394 783 503 853 474 832 b 360 803 375 775 363 781 l 363 1101 b 336 1128 363 1118 354 1128 l 106 1128 b 78 1101 88 1128 78 1119 b 74 550 75 939 74 693 l 76 26 b 103 0 76 8 83 0 l 310 0 b 340 26 328 0 338 8 l 343 44 b 376 63 347 63 360 69 b 642 -18 468 13 490 -18 z m 542 208 b 414 256 489 208 449 225 b 360 424 378 286 360 321 b 400 583 360 515 372 556 b 522 625 425 608 464 625 b 640 593 593 625 622 610 b 669 417 660 572 669 525 b 639 240 669 307 658 260 b 542 208 619 222 590 208 z "},"c":{"ha":975,"x_min":0,"x_max":0,"o":"m 488 -21 b 860 58 717 -21 810 8 b 933 329 903 101 925 182 b 908 358 935 347 928 357 b 661 361 840 363 724 364 b 632 333 643 360 633 351 b 603 221 625 267 618 236 b 489 196 590 207 572 196 b 371 221 422 196 389 201 b 339 406 351 240 339 282 b 374 611 339 525 354 592 b 488 638 390 629 417 638 b 599 613 565 638 586 625 b 632 525 614 597 622 576 b 664 499 636 508 646 499 b 914 499 732 497 842 497 b 938 526 931 499 939 507 b 854 781 924 650 900 735 b 488 853 808 824 717 853 b 129 778 271 853 181 829 b 42 408 79 728 42 619 b 124 58 42 207 72 108 b 488 -21 175 7 256 -21 z "},"ç":{"ha":975,"x_min":0,"x_max":0,"o":"m 42 408 b 124 58 42 207 72 108 b 374 -18 165 17 226 -10 l 294 -189 b 314 -218 285 -210 290 -218 l 469 -218 b 506 -193 489 -218 500 -211 l 568 -19 b 860 58 740 -12 817 15 b 933 329 903 101 925 182 b 908 358 935 347 928 357 b 661 361 840 363 724 364 b 632 333 643 360 633 351 b 603 221 625 267 618 236 b 489 196 590 207 572 196 b 371 221 422 196 389 201 b 339 406 351 240 339 282 b 374 611 339 525 354 592 b 488 638 390 629 417 638 b 599 613 565 638 586 625 b 632 525 614 597 622 576 b 664 499 636 508 646 499 b 914 499 732 497 842 497 b 938 526 931 499 939 507 b 854 781 924 650 900 735 b 488 853 808 824 717 853 b 129 778 271 853 181 829 b 42 408 79 728 42 619 z "},"d":{"ha":1011,"x_min":0,"x_max":0,"o":"m 369 -18 b 635 63 521 -18 543 13 b 668 44 651 69 664 63 l 671 26 b 701 0 674 8 683 0 l 908 0 b 935 26 928 0 935 8 l 938 550 b 933 1101 938 693 936 939 b 906 1128 933 1119 924 1128 l 675 1128 b 649 1101 657 1128 649 1118 l 651 803 b 617 783 649 781 636 775 b 367 853 538 832 508 853 b 121 790 225 853 161 829 b 42 433 72 740 42 647 b 125 44 42 201 75 96 b 369 -18 164 4 228 -18 z m 469 208 b 372 240 421 208 392 222 b 342 417 353 260 342 307 b 371 593 342 525 351 572 b 489 625 389 610 418 625 b 611 583 547 625 586 608 b 651 424 639 556 651 515 b 597 256 651 321 633 286 b 469 208 563 225 522 208 z "},"e":{"ha":981,"x_min":0,"x_max":0,"o":"m 501 -19 b 863 39 735 -19 818 -6 b 939 242 900 75 925 136 b 915 269 940 258 933 268 b 672 272 863 272 774 272 b 638 247 654 272 643 265 b 615 203 632 225 628 214 b 506 179 601 189 578 179 b 369 207 432 179 389 189 b 340 324 354 224 344 256 b 361 346 339 339 346 346 l 915 349 b 942 376 933 349 942 357 b 865 781 944 625 913 733 b 497 851 814 832 721 851 b 129 779 257 851 179 829 b 40 415 81 728 40 618 b 126 49 40 221 78 97 b 501 -19 175 -3 263 -19 z m 344 542 b 372 628 351 592 361 617 b 492 654 388 642 417 654 b 615 629 571 654 599 644 b 639 543 626 618 633 594 b 619 522 640 529 635 522 l 364 519 b 344 542 350 519 343 526 z "},"é":{"ha":981,"x_min":0,"x_max":0,"o":"m 501 -19 b 863 39 735 -19 818 -6 b 939 242 900 75 925 136 b 915 269 940 258 933 268 b 672 272 863 272 774 272 b 638 247 654 272 643 265 b 615 203 632 225 628 214 b 506 179 601 189 578 179 b 369 207 432 179 389 189 b 340 324 354 224 344 256 b 361 346 339 339 346 346 l 915 349 b 942 376 933 349 942 357 b 865 781 944 625 913 733 b 497 851 814 832 721 851 b 129 779 257 851 179 829 b 40 415 81 728 40 618 b 126 49 40 221 78 97 b 501 -19 175 -3 263 -19 z m 344 542 b 372 628 351 592 361 617 b 492 654 388 642 417 654 b 615 629 571 654 599 644 b 639 543 626 618 633 594 b 619 522 640 529 635 522 l 364 519 b 344 542 350 519 343 526 z m 386 913 l 508 913 b 551 935 526 913 540 918 l 686 1149 b 672 1175 699 1167 693 1175 l 514 1175 b 474 1151 494 1175 482 1168 l 367 940 b 386 913 357 921 363 913 z "},"ê":{"ha":981,"x_min":0,"x_max":0,"o":"m 501 -19 b 863 39 735 -19 818 -6 b 939 242 900 75 925 136 b 915 269 940 258 933 268 b 672 272 863 272 774 272 b 638 247 654 272 643 265 b 615 203 632 225 628 214 b 506 179 601 189 578 179 b 369 207 432 179 389 189 b 340 324 354 224 344 256 b 361 346 339 339 346 346 l 915 349 b 942 376 933 349 942 357 b 865 781 944 625 913 733 b 497 851 814 832 721 851 b 129 779 257 851 179 829 b 40 415 81 728 40 618 b 126 49 40 221 78 97 b 501 -19 175 -3 263 -19 z m 344 542 b 372 628 351 592 361 617 b 492 654 388 642 417 654 b 615 629 571 654 599 644 b 639 543 626 618 633 594 b 619 522 640 529 635 522 l 364 519 b 344 542 350 519 343 526 z m 382 1150 l 229 938 b 242 913 215 919 219 913 l 378 913 b 421 933 397 913 410 918 l 492 1026 l 560 933 b 603 913 571 918 583 913 l 736 913 b 750 938 758 913 763 919 l 604 1150 b 561 1172 593 1167 579 1172 l 425 1172 b 382 1150 406 1172 393 1167 z "},"ë":{"ha":981,"x_min":0,"x_max":0,"o":"m 501 -19 b 863 39 735 -19 818 -6 b 939 242 900 75 925 136 b 915 269 940 258 933 268 b 672 272 863 272 774 272 b 638 247 654 272 643 265 b 615 203 632 225 628 214 b 506 179 601 189 578 179 b 369 207 432 179 389 189 b 340 324 354 224 344 256 b 361 346 339 339 346 346 l 915 349 b 942 376 933 349 942 357 b 865 781 944 625 913 733 b 497 851 814 832 721 851 b 129 779 257 851 179 829 b 40 415 81 728 40 618 b 126 49 40 221 78 97 b 501 -19 175 -3 263 -19 z m 344 542 b 372 628 351 592 361 617 b 492 654 388 642 417 654 b 615 629 571 654 599 644 b 639 543 626 618 633 594 b 619 522 640 529 635 522 l 364 519 b 344 542 350 519 343 526 z m 547 917 l 715 917 b 742 943 732 917 742 925 l 742 1100 b 715 1126 742 1117 733 1126 l 547 1126 b 522 1100 531 1126 522 1118 l 522 943 b 547 917 522 925 529 917 z m 274 917 l 439 917 b 465 943 457 917 465 925 l 465 1100 b 439 1126 465 1117 457 1126 l 274 1126 b 249 1100 257 1126 249 1118 l 249 943 b 274 917 249 925 256 917 z "},"è":{"ha":981,"x_min":0,"x_max":0,"o":"m 501 -19 b 863 39 735 -19 818 -6 b 939 242 900 75 925 136 b 915 269 940 258 933 268 b 672 272 863 272 774 272 b 638 247 654 272 643 265 b 615 203 632 225 628 214 b 506 179 601 189 578 179 b 369 207 432 179 389 189 b 340 324 354 224 344 256 b 361 346 339 339 346 346 l 915 349 b 942 376 933 349 942 357 b 865 781 944 625 913 733 b 497 851 814 832 721 851 b 129 779 257 851 179 829 b 40 415 81 728 40 618 b 126 49 40 221 78 97 b 501 -19 175 -3 263 -19 z m 344 542 b 372 628 351 592 361 617 b 492 654 388 642 417 654 b 615 629 571 654 599 644 b 639 543 626 618 633 594 b 619 522 640 529 635 522 l 364 519 b 344 542 350 519 343 526 z m 632 940 l 529 1150 b 489 1175 521 1168 508 1175 l 326 1175 b 311 1147 304 1175 300 1167 l 443 935 b 486 913 454 918 467 913 l 614 913 b 632 940 636 913 643 921 z "},"f":{"ha":760,"x_min":0,"x_max":0,"o":"m 214 0 l 453 0 b 481 26 471 0 481 8 b 475 594 481 172 476 433 b 497 617 475 608 482 617 l 711 617 b 738 643 729 617 738 625 l 738 807 b 711 833 738 825 731 833 l 493 833 b 471 856 479 833 471 840 l 471 874 b 550 932 471 910 492 932 b 719 929 622 932 681 931 b 746 956 736 929 746 938 l 746 1104 b 719 1135 746 1122 738 1132 b 499 1139 669 1138 574 1139 b 189 915 293 1139 189 1047 l 189 856 b 167 833 189 842 182 833 l 43 833 b 17 807 25 833 17 825 l 17 643 b 43 617 17 625 25 617 l 168 617 b 190 594 182 617 190 610 l 186 26 b 214 0 186 8 194 0 z "},"g":{"ha":944,"x_min":0,"x_max":0,"o":"m 443 -318 b 878 -229 718 -318 824 -283 b 933 -54 914 -192 933 -131 b 882 103 933 17 911 72 b 551 175 839 144 772 172 b 329 196 353 176 340 183 b 318 221 322 203 318 213 b 333 261 318 231 324 244 b 376 283 343 278 357 285 l 485 282 b 828 346 707 282 786 304 b 888 571 864 382 888 440 b 836 771 888 675 871 739 b 775 810 819 788 799 801 b 753 835 758 817 753 822 b 794 869 753 860 767 869 l 857 869 b 885 896 875 869 885 878 l 885 1047 b 858 1074 885 1065 876 1075 b 647 1026 722 1071 682 1058 b 589 868 614 992 601 957 b 564 847 586 854 579 847 b 464 851 539 850 503 851 b 115 776 250 851 164 826 b 51 563 69 732 51 658 b 138 324 51 447 72 372 b 140 286 156 313 157 300 b 44 129 69 219 44 176 b 90 24 44 86 58 51 b 93 -18 108 10 108 -3 b 19 -156 40 -71 19 -111 b 53 -242 19 -192 32 -222 b 443 -318 97 -287 183 -318 z m 483 -143 b 288 -115 338 -143 301 -132 b 279 -85 283 -110 279 -100 b 297 -33 279 -71 286 -53 b 329 -18 304 -24 315 -17 l 469 -21 b 663 -50 606 -24 649 -33 b 674 -83 671 -58 674 -71 b 661 -115 674 -96 669 -108 b 483 -143 644 -132 618 -143 z m 474 468 b 346 492 393 468 363 475 b 326 563 332 506 326 529 b 347 639 326 597 332 626 b 474 665 365 658 392 665 b 592 640 544 665 575 657 b 611 568 606 626 611 601 b 593 492 611 529 607 507 b 474 468 579 478 553 468 z "},"h":{"ha":993,"x_min":0,"x_max":0,"o":"m 101 0 l 343 0 b 369 26 360 0 369 8 l 368 357 b 410 576 368 517 388 553 b 514 614 432 599 461 614 b 608 593 567 614 592 608 b 633 415 629 574 633 543 b 631 26 633 243 631 126 b 657 0 631 8 639 0 l 899 0 b 926 26 917 0 925 8 l 928 451 b 869 797 928 649 919 749 b 635 853 831 833 765 853 b 396 779 519 851 474 838 b 364 794 378 768 367 774 b 368 1100 364 871 365 981 b 342 1126 368 1118 361 1126 l 106 1126 b 79 1100 88 1126 79 1118 b 74 381 76 865 74 633 l 75 26 b 101 0 75 8 83 0 z "},"i":{"ha":433,"x_min":0,"x_max":0,"o":"m 100 0 l 333 0 b 360 26 350 0 360 8 b 360 807 363 228 363 606 b 333 833 360 825 351 833 l 100 833 b 74 807 83 833 74 825 b 74 26 69 606 69 225 b 100 0 74 8 82 0 z m 99 904 l 333 904 b 363 931 351 904 361 913 b 361 1114 364 982 364 1060 b 333 1140 361 1132 353 1140 l 99 1140 b 71 1114 82 1140 72 1133 b 71 931 69 1060 69 986 b 99 904 72 914 81 904 z "},"ı":{"ha":443,"x_min":0,"x_max":0,"o":"m 100 0 l 343 0 b 363 21 356 0 363 4 b 363 811 365 222 365 608 b 343 832 363 826 357 832 l 100 832 b 79 811 86 832 79 828 b 79 21 76 611 75 219 b 100 0 79 6 86 0 z "},"í":{"ha":443,"x_min":0,"x_max":0,"o":"m 100 0 l 343 0 b 363 21 356 0 363 4 b 363 811 365 222 365 608 b 343 832 363 826 357 832 l 100 832 b 79 811 86 832 79 828 b 79 21 76 611 75 219 b 100 0 79 6 86 0 z m 115 911 l 238 911 b 281 933 256 911 269 917 l 415 1147 b 401 1174 428 1165 422 1174 l 243 1174 b 203 1150 224 1174 211 1167 l 96 939 b 115 911 86 919 92 911 z "},"î":{"ha":443,"x_min":0,"x_max":0,"o":"m 100 0 l 343 0 b 363 21 356 0 363 4 b 363 811 365 222 365 608 b 343 832 363 826 357 832 l 100 832 b 79 811 86 832 79 828 b 79 21 76 611 75 219 b 100 0 79 6 86 0 z m 113 1149 l -40 936 b -28 911 -54 918 -50 911 l 108 911 b 151 932 128 911 140 917 l 222 1025 l 290 932 b 333 911 301 917 314 911 l 467 911 b 481 936 489 911 493 918 l 335 1149 b 292 1171 324 1165 310 1171 l 156 1171 b 113 1149 136 1171 124 1165 z "},"ï":{"ha":443,"x_min":0,"x_max":0,"o":"m 100 0 l 343 0 b 363 21 356 0 363 4 b 363 811 365 222 365 608 b 343 832 363 826 357 832 l 100 832 b 79 811 86 832 79 828 b 79 21 76 611 75 219 b 100 0 79 6 86 0 z m 278 915 l 446 915 b 472 942 463 915 472 924 l 472 1099 b 446 1125 472 1115 464 1125 l 278 1125 b 253 1099 261 1125 253 1117 l 253 942 b 278 915 253 924 260 915 z m 4 915 l 169 915 b 196 942 188 915 196 924 l 196 1099 b 169 1125 196 1115 188 1125 l 4 1125 b -21 1099 -12 1125 -21 1117 l -21 942 b 4 915 -21 924 -14 915 z "},"ì":{"ha":443,"x_min":0,"x_max":0,"o":"m 100 0 l 343 0 b 363 21 356 0 363 4 b 363 811 365 222 365 608 b 343 832 363 826 357 832 l 100 832 b 79 811 86 832 79 828 b 79 21 76 611 75 219 b 100 0 79 6 86 0 z m 361 939 l 258 1149 b 218 1174 250 1167 238 1174 l 56 1174 b 40 1146 33 1174 29 1165 l 172 933 b 215 911 183 917 196 911 l 343 911 b 361 939 365 911 372 919 z "},"ĳ":{"ha":871,"x_min":0,"x_max":0,"o":"m 100 0 l 333 0 b 360 26 350 0 360 8 b 360 807 363 228 363 606 b 333 833 360 825 351 833 l 100 833 b 74 807 83 833 74 825 b 74 26 69 606 69 225 b 100 0 74 8 82 0 z m 99 904 l 333 904 b 363 931 351 904 361 913 b 361 1114 364 982 364 1060 b 333 1140 361 1132 353 1140 l 99 1140 b 71 1114 82 1140 72 1133 b 71 931 69 1060 69 986 b 99 904 72 914 81 904 z m 528 -300 b 800 -67 746 -300 800 -221 b 796 807 800 168 799 593 b 768 833 794 825 786 833 l 535 833 b 508 807 518 833 508 825 b 511 -15 506 565 511 233 b 436 -82 511 -60 501 -82 l 328 -79 b 300 -104 310 -78 300 -85 l 300 -267 b 326 -296 300 -285 308 -293 b 528 -300 379 -299 456 -300 z m 533 904 l 768 904 b 797 931 786 904 796 913 b 796 1114 800 983 799 1063 b 768 1140 796 1132 786 1140 l 535 1140 b 506 1114 517 1140 507 1133 b 506 931 504 1063 504 982 b 533 904 507 914 515 904 z "},"j":{"ha":440,"x_min":0,"x_max":0,"o":"m 96 -300 b 368 -67 314 -300 368 -221 b 364 807 368 168 367 593 b 336 833 363 825 354 833 l 103 833 b 76 807 86 833 76 825 b 79 -15 74 565 79 233 b 4 -82 79 -60 69 -82 l -104 -79 b -132 -104 -122 -78 -132 -85 l -132 -267 b -106 -296 -132 -285 -124 -293 b 96 -300 -53 -299 24 -300 z m 101 904 l 336 904 b 365 931 354 904 364 913 b 364 1114 368 983 367 1063 b 336 1140 364 1132 354 1140 l 103 1140 b 74 1114 85 1140 75 1133 b 74 931 72 1063 72 982 b 101 904 75 914 83 904 z "},"ȷ":{"ha":444,"x_min":0,"x_max":0,"o":"m 96 -299 b 368 -65 314 -299 368 -221 b 364 806 368 169 367 590 b 336 832 363 822 356 832 l 103 832 b 76 806 86 832 76 824 b 79 -14 75 564 79 235 b 4 -82 79 -60 69 -82 l -104 -79 b -132 -104 -122 -78 -132 -85 l -132 -265 b -104 -294 -132 -283 -124 -293 b 96 -299 -53 -297 24 -299 z "},"k":{"ha":958,"x_min":0,"x_max":0,"o":"m 104 0 l 357 0 b 383 26 375 0 383 8 l 376 347 b 400 364 375 372 388 378 b 614 24 479 260 544 139 b 657 0 624 7 638 0 l 942 0 b 957 28 965 0 969 8 b 671 465 854 190 749 356 b 674 508 660 481 660 494 b 943 808 763 600 874 722 b 931 833 957 825 954 833 l 656 833 b 610 811 636 833 622 826 b 406 576 544 732 483 657 b 374 581 389 558 376 563 b 382 1094 374 717 382 958 b 356 1121 382 1113 374 1121 l 104 1121 b 78 1094 88 1121 78 1113 b 78 26 74 772 74 321 b 104 0 78 8 86 0 z "},"l":{"ha":442,"x_min":0,"x_max":0,"o":"m 104 0 l 338 0 b 365 26 356 0 365 8 b 365 1100 369 331 369 832 b 338 1126 365 1118 357 1126 l 104 1126 b 76 1100 86 1126 78 1118 b 76 26 72 831 72 340 b 104 0 78 8 85 0 z "},"m":{"ha":1519,"x_min":0,"x_max":0,"o":"m 99 0 l 342 0 b 368 26 360 0 368 8 l 367 404 b 411 582 367 506 376 549 b 507 618 433 604 458 618 b 593 594 550 618 574 611 b 618 414 613 576 618 536 l 615 26 b 642 0 615 8 624 0 l 883 0 b 911 26 901 0 911 8 l 913 413 b 954 585 913 511 924 553 b 1051 618 976 606 1000 618 b 1133 594 1092 618 1117 613 b 1160 424 1153 576 1160 540 l 1158 26 b 1185 0 1158 8 1167 0 l 1425 0 b 1453 26 1443 0 1453 8 b 1456 497 1453 143 1456 268 b 1394 796 1456 681 1446 747 b 1172 853 1354 832 1299 853 b 914 754 1042 853 993 828 b 876 761 899 740 886 742 b 636 853 833 836 781 853 b 390 765 510 853 469 835 b 357 778 372 753 363 757 l 354 807 b 326 833 353 825 344 833 l 103 833 b 75 807 85 833 75 825 b 72 392 72 686 72 564 l 72 26 b 99 0 72 8 81 0 z "},"n":{"ha":992,"x_min":0,"x_max":0,"o":"m 103 0 l 338 0 b 365 26 356 0 365 8 l 367 389 b 406 569 367 507 376 542 b 532 608 433 597 465 611 b 608 588 576 608 592 604 b 631 408 625 571 631 546 b 632 26 631 268 629 125 b 660 0 632 8 640 0 l 894 0 b 922 26 913 0 922 8 b 925 458 924 128 925 276 b 868 794 925 676 917 744 b 633 853 831 832 764 853 b 393 771 514 853 475 836 b 357 785 375 760 363 765 l 354 807 b 324 833 351 825 343 833 l 104 833 b 78 807 88 833 78 825 b 72 379 74 678 72 508 b 75 26 72 247 72 126 b 103 0 76 8 85 0 z "},"ñ":{"ha":992,"x_min":0,"x_max":0,"o":"m 103 0 l 338 0 b 365 26 356 0 365 8 l 367 389 b 406 569 367 507 376 542 b 532 608 433 597 465 611 b 608 588 576 608 592 604 b 631 408 625 571 631 546 b 632 26 631 268 629 125 b 660 0 632 8 640 0 l 894 0 b 922 26 913 0 922 8 b 925 458 924 128 925 276 b 868 794 925 676 917 744 b 633 853 831 832 764 853 b 393 771 514 853 475 836 b 357 785 375 760 363 765 l 354 807 b 324 833 351 825 343 833 l 104 833 b 78 807 88 833 78 825 b 72 379 74 678 72 508 b 75 26 72 247 72 126 b 103 0 76 8 85 0 z m 629 892 b 724 926 668 892 699 904 b 742 976 736 942 742 958 l 742 1078 b 718 1088 742 1099 735 1103 b 633 1061 690 1067 669 1061 b 528 1086 597 1061 565 1074 b 396 1118 490 1101 447 1118 b 299 1083 357 1118 325 1106 b 281 1035 286 1068 281 1053 l 281 932 b 304 919 281 910 289 907 b 390 947 335 942 356 947 b 497 921 428 947 460 935 b 629 892 535 907 578 892 z "},"o":{"ha":972,"x_min":0,"x_max":0,"o":"m 483 -19 b 851 60 735 -19 804 11 b 931 417 904 113 931 221 b 851 776 931 617 903 724 b 483 853 804 822 735 853 b 122 774 251 853 169 821 b 40 417 69 722 40 615 b 122 61 40 221 69 113 b 483 -19 169 11 251 -19 z m 485 197 b 367 225 425 197 386 207 b 336 407 347 246 336 289 b 371 608 336 531 349 586 b 485 636 390 628 428 636 b 600 608 543 636 582 628 b 635 407 624 586 635 531 b 607 229 635 290 626 247 b 485 197 588 207 546 197 z "},"ó":{"ha":972,"x_min":0,"x_max":0,"o":"m 483 -19 b 851 60 735 -19 804 11 b 931 417 904 113 931 221 b 851 776 931 617 903 724 b 483 853 804 822 735 853 b 122 774 251 853 169 821 b 40 417 69 722 40 615 b 122 61 40 221 69 113 b 483 -19 169 11 251 -19 z m 485 197 b 367 225 425 197 386 207 b 336 407 347 246 336 289 b 371 608 336 531 349 586 b 485 636 390 628 428 636 b 600 608 543 636 582 628 b 635 407 624 586 635 531 b 607 229 635 290 626 247 b 485 197 588 207 546 197 z m 379 913 l 501 913 b 544 935 519 913 533 918 l 679 1149 b 665 1175 692 1167 686 1175 l 507 1175 b 467 1151 488 1175 475 1168 l 360 940 b 379 913 350 921 356 913 z "},"ô":{"ha":972,"x_min":0,"x_max":0,"o":"m 483 -19 b 851 60 735 -19 804 11 b 931 417 904 113 931 221 b 851 776 931 617 903 724 b 483 853 804 822 735 853 b 122 774 251 853 169 821 b 40 417 69 722 40 615 b 122 61 40 221 69 113 b 483 -19 169 11 251 -19 z m 485 197 b 367 225 425 197 386 207 b 336 407 347 246 336 289 b 371 608 336 531 349 586 b 485 636 390 628 428 636 b 600 608 543 636 582 628 b 635 407 624 586 635 531 b 607 229 635 290 626 247 b 485 197 588 207 546 197 z m 375 1150 l 222 938 b 235 913 208 919 213 913 l 371 913 b 414 933 390 913 403 918 l 485 1026 l 553 933 b 596 913 564 918 576 913 l 729 913 b 743 938 751 913 756 919 l 597 1150 b 554 1172 586 1167 572 1172 l 418 1172 b 375 1150 399 1172 386 1167 z "},"ö":{"ha":972,"x_min":0,"x_max":0,"o":"m 483 -19 b 851 60 735 -19 804 11 b 931 417 904 113 931 221 b 851 776 931 617 903 724 b 483 853 804 822 735 853 b 122 774 251 853 169 821 b 40 417 69 722 40 615 b 122 61 40 221 69 113 b 483 -19 169 11 251 -19 z m 485 197 b 367 225 425 197 386 207 b 336 407 347 246 336 289 b 371 608 336 531 349 586 b 485 636 390 628 428 636 b 600 608 543 636 582 628 b 635 407 624 586 635 531 b 607 229 635 290 626 247 b 485 197 588 207 546 197 z m 540 917 l 708 917 b 735 943 725 917 735 925 l 735 1100 b 708 1126 735 1117 726 1126 l 540 1126 b 515 1100 524 1126 515 1118 l 515 943 b 540 917 515 925 522 917 z m 267 917 l 432 917 b 458 943 450 917 458 925 l 458 1100 b 432 1126 458 1117 450 1126 l 267 1126 b 242 1100 250 1126 242 1118 l 242 943 b 267 917 242 925 249 917 z "},"ò":{"ha":972,"x_min":0,"x_max":0,"o":"m 483 -19 b 851 60 735 -19 804 11 b 931 417 904 113 931 221 b 851 776 931 617 903 724 b 483 853 804 822 735 853 b 122 774 251 853 169 821 b 40 417 69 722 40 615 b 122 61 40 221 69 113 b 483 -19 169 11 251 -19 z m 485 197 b 367 225 425 197 386 207 b 336 407 347 246 336 289 b 371 608 336 531 349 586 b 485 636 390 628 428 636 b 600 608 543 636 582 628 b 635 407 624 586 635 531 b 607 229 635 290 626 247 b 485 197 588 207 546 197 z m 625 940 l 522 1150 b 482 1175 514 1168 501 1175 l 319 1175 b 304 1147 297 1175 293 1167 l 436 935 b 479 913 447 918 460 913 l 607 913 b 625 940 629 913 636 921 z "},"ø":{"ha":972,"x_min":0,"x_max":0,"o":"m 483 -19 b 851 60 735 -19 804 11 b 931 417 904 113 931 221 b 851 776 931 617 903 724 b 736 833 826 800 796 819 l 810 1010 b 789 1039 818 1029 813 1039 l 696 1039 b 656 1013 676 1039 664 1031 l 588 850 l 483 853 b 122 774 251 853 169 821 b 40 417 69 722 40 615 b 122 61 40 221 69 113 b 235 1 146 36 179 15 l 156 -187 b 175 -218 146 -208 153 -218 l 271 -218 b 310 -192 290 -218 303 -210 l 382 -17 z m 485 197 l 472 197 l 624 561 b 635 407 631 528 635 479 b 607 229 635 290 626 247 b 485 197 588 207 546 197 z m 336 407 b 371 608 336 531 349 586 b 485 636 390 628 428 636 l 499 636 l 346 269 b 336 407 340 299 336 340 z "},"õ":{"ha":972,"x_min":0,"x_max":0,"o":"m 483 -19 b 851 60 735 -19 804 11 b 931 417 904 113 931 221 b 851 776 931 617 903 724 b 483 853 804 822 735 853 b 122 774 251 853 169 821 b 40 417 69 722 40 615 b 122 61 40 221 69 113 b 483 -19 169 11 251 -19 z m 485 197 b 367 225 425 197 386 207 b 336 407 347 246 336 289 b 371 608 336 531 349 586 b 485 636 390 628 428 636 b 600 608 543 636 582 628 b 635 407 624 586 635 531 b 607 229 635 290 626 247 b 485 197 588 207 546 197 z m 625 892 b 719 926 664 892 694 904 b 738 976 732 942 738 958 l 738 1078 b 714 1088 738 1099 731 1103 b 629 1061 686 1067 665 1061 b 524 1086 593 1061 561 1074 b 392 1118 486 1101 443 1118 b 294 1083 353 1118 321 1106 b 276 1035 282 1068 276 1053 l 276 932 b 300 919 276 910 285 907 b 386 947 331 942 351 947 b 493 921 424 947 456 935 b 625 892 531 907 574 892 z "},"œ":{"ha":1572,"x_min":0,"x_max":0,"o":"m 483 -19 b 776 11 636 -19 722 -8 b 1094 -19 833 -11 926 -19 b 1456 39 1328 -19 1411 -6 b 1532 242 1493 75 1518 136 b 1508 269 1533 258 1526 268 b 1265 272 1456 272 1367 272 b 1231 247 1247 272 1236 265 b 1208 203 1225 225 1221 214 b 1099 179 1194 189 1171 179 b 963 207 1025 179 982 189 b 933 324 947 224 938 256 b 954 346 932 339 939 346 l 1508 349 b 1535 376 1526 349 1535 357 b 1458 781 1538 625 1506 733 b 1090 851 1407 832 1314 851 b 785 819 928 851 840 842 b 483 853 731 840 644 853 b 122 774 251 853 169 821 b 40 417 69 722 40 615 b 122 61 40 221 69 113 b 483 -19 169 11 251 -19 z m 485 197 b 367 225 425 197 386 207 b 336 407 347 246 336 289 b 371 608 336 531 349 586 b 485 636 390 628 428 636 b 600 608 543 636 582 628 b 633 458 619 589 631 546 l 633 415 l 635 364 b 607 229 632 279 624 244 b 485 197 588 207 546 197 z m 938 542 b 965 628 944 592 954 617 b 1085 654 981 642 1010 654 b 1208 629 1164 654 1192 644 b 1232 543 1219 618 1226 594 b 1213 522 1233 529 1228 522 l 957 519 b 938 542 943 519 936 526 z "},"p":{"ha":1007,"x_min":0,"x_max":0,"o":"m 99 -287 l 340 -287 b 367 -260 358 -287 367 -279 l 367 15 b 399 35 369 32 381 40 b 650 -19 474 1 510 -19 b 886 39 782 -19 847 1 b 967 408 935 88 967 176 b 886 790 967 649 939 739 b 644 851 847 831 789 851 b 408 771 533 851 489 825 b 372 788 389 761 376 767 l 371 807 b 342 833 369 825 361 833 l 103 833 b 75 807 85 833 75 825 l 72 289 l 72 -260 b 99 -287 72 -278 81 -287 z m 544 200 b 411 247 483 200 446 211 b 363 411 378 279 363 313 b 401 579 363 515 374 553 b 526 624 426 604 468 624 b 638 593 589 624 615 614 b 669 414 658 572 669 518 b 640 232 669 297 661 253 b 544 200 618 210 592 200 z "},"þ":{"ha":1018,"x_min":0,"x_max":0,"o":"m 100 -286 l 340 -286 b 368 -260 358 -286 368 -279 l 367 18 b 385 42 367 31 371 42 b 443 17 401 42 411 31 b 650 -19 500 -6 542 -19 b 888 40 783 -19 849 1 b 967 407 936 89 967 178 b 888 789 967 647 940 738 b 644 850 849 828 792 850 b 450 801 540 850 493 833 b 386 758 414 775 404 758 b 374 776 378 758 374 764 l 371 1101 b 344 1128 371 1119 363 1128 l 103 1128 b 76 1101 85 1128 76 1121 l 72 289 l 72 -260 b 100 -286 72 -278 81 -286 z m 546 199 b 411 246 483 199 446 210 b 363 410 379 279 363 311 b 399 578 363 514 374 551 b 525 622 425 603 465 622 b 639 590 589 622 617 613 b 669 413 658 571 669 521 b 640 232 669 292 661 251 b 546 199 618 210 592 199 z "},"q":{"ha":1007,"x_min":0,"x_max":0,"o":"m 667 -287 l 908 -287 b 935 -260 926 -287 935 -278 l 935 289 l 932 807 b 904 833 932 825 922 833 l 665 833 b 636 807 646 833 638 825 l 635 788 b 599 771 631 767 618 761 b 363 851 518 825 474 851 b 121 790 218 851 160 831 b 40 408 68 739 40 649 b 121 39 40 176 72 88 b 357 -19 160 1 225 -19 b 608 35 497 -19 533 1 b 640 15 626 40 638 32 l 640 -260 b 667 -287 640 -279 649 -287 z m 463 200 b 367 232 415 200 389 210 b 338 414 346 253 338 297 b 369 593 338 518 349 572 b 481 624 392 614 418 624 b 606 579 539 624 581 604 b 644 411 633 553 644 515 b 596 247 644 313 629 279 b 463 200 561 211 524 200 z "},"r":{"ha":886,"x_min":0,"x_max":0,"o":"m 93 0 l 335 0 b 361 26 353 0 361 8 l 361 492 b 392 586 361 542 368 565 b 481 618 414 608 436 618 b 561 597 531 618 546 611 b 586 454 576 581 582 554 b 614 428 588 436 596 428 l 847 428 b 872 454 865 428 874 435 b 813 797 864 683 851 757 b 607 851 775 835 722 851 b 374 772 493 851 456 840 b 338 786 356 761 343 765 l 335 807 b 304 833 332 825 324 833 l 99 833 b 71 807 81 833 71 825 b 67 440 67 686 67 571 l 67 26 b 93 0 67 8 75 0 z "},"s":{"ha":933,"x_min":0,"x_max":0,"o":"m 469 -19 b 839 50 739 -19 799 10 b 899 257 876 88 899 161 b 840 474 899 365 876 438 b 518 538 803 511 743 525 b 339 564 371 547 354 547 b 325 606 329 574 325 586 b 340 649 325 622 331 639 b 456 668 351 661 368 668 b 579 647 550 668 568 657 b 593 624 585 640 589 632 b 628 596 599 607 608 597 b 874 594 711 592 792 592 b 896 622 890 596 899 604 b 836 778 882 701 865 749 b 464 851 797 817 740 851 b 93 779 208 851 132 819 b 36 583 58 743 36 674 b 92 386 36 486 56 421 b 389 317 128 347 207 331 b 593 288 560 306 581 301 b 610 232 606 275 610 258 b 596 188 610 213 606 196 b 463 168 583 175 558 168 b 361 189 396 168 375 175 b 342 229 350 199 344 214 b 311 257 339 247 329 257 b 63 256 243 258 149 258 b 38 229 44 256 36 247 b 94 58 49 135 65 92 b 469 -19 136 17 215 -19 z "},"t":{"ha":982,"x_min":0,"x_max":0,"o":"m 567 -19 b 876 46 771 -19 826 -3 b 946 347 918 89 935 150 b 921 375 947 365 939 375 b 717 378 854 378 786 379 b 688 351 699 378 689 369 b 661 208 679 246 675 222 b 579 189 646 193 628 189 b 490 254 504 189 490 206 b 492 582 490 332 489 490 b 514 603 492 596 499 603 l 918 603 b 946 629 936 603 944 611 l 946 807 b 919 833 946 825 939 833 l 519 833 b 497 856 506 833 497 840 l 497 999 b 471 1025 497 1015 489 1025 l 253 1025 b 224 999 235 1025 225 1017 l 213 856 b 189 833 211 842 203 833 l 54 833 b 26 807 36 833 26 825 l 25 628 b 53 601 25 610 33 601 l 183 603 b 206 582 199 603 206 596 b 199 203 203 451 199 279 b 567 -19 199 40 254 -19 z "},"u":{"ha":992,"x_min":0,"x_max":0,"o":"m 889 833 l 654 833 b 626 807 636 833 626 825 l 625 444 b 586 264 625 326 615 292 b 460 225 558 236 526 222 b 383 246 415 225 400 229 b 361 425 367 263 361 288 b 360 807 361 565 363 708 b 332 833 360 825 351 833 l 97 833 b 69 807 79 833 69 825 b 67 375 68 706 67 557 b 124 39 67 157 75 89 b 358 -19 161 1 228 -19 b 599 63 478 -19 517 -3 b 635 49 617 74 629 68 l 638 26 b 668 0 640 8 649 0 l 888 0 b 914 26 904 0 914 8 b 919 454 918 156 919 325 b 917 807 919 586 919 707 b 889 833 915 825 907 833 z "},"ú":{"ha":992,"x_min":0,"x_max":0,"o":"m 889 833 l 654 833 b 626 807 636 833 626 825 l 625 444 b 586 264 625 326 615 292 b 460 225 558 236 526 222 b 383 246 415 225 400 229 b 361 425 367 263 361 288 b 360 807 361 565 363 708 b 332 833 360 825 351 833 l 97 833 b 69 807 79 833 69 825 b 67 375 68 706 67 557 b 124 39 67 157 75 89 b 358 -19 161 1 228 -19 b 599 63 478 -19 517 -3 b 635 49 617 74 629 68 l 638 26 b 668 0 640 8 649 0 l 888 0 b 914 26 904 0 914 8 b 919 454 918 156 919 325 b 917 807 919 586 919 707 b 889 833 915 825 907 833 z m 360 911 l 482 911 b 525 933 500 911 514 917 l 660 1147 b 646 1174 672 1165 667 1174 l 488 1174 b 447 1150 468 1174 456 1167 l 340 939 b 360 911 331 919 336 911 z "},"û":{"ha":992,"x_min":0,"x_max":0,"o":"m 889 833 l 654 833 b 626 807 636 833 626 825 l 625 444 b 586 264 625 326 615 292 b 460 225 558 236 526 222 b 383 246 415 225 400 229 b 361 425 367 263 361 288 b 360 807 361 565 363 708 b 332 833 360 825 351 833 l 97 833 b 69 807 79 833 69 825 b 67 375 68 706 67 557 b 124 39 67 157 75 89 b 358 -19 161 1 228 -19 b 599 63 478 -19 517 -3 b 635 49 617 74 629 68 l 638 26 b 668 0 640 8 649 0 l 888 0 b 914 26 904 0 914 8 b 919 454 918 156 919 325 b 917 807 919 586 919 707 b 889 833 915 825 907 833 z m 357 1149 l 204 936 b 217 911 190 918 194 911 l 353 911 b 396 932 372 911 385 917 l 467 1025 l 535 932 b 578 911 546 917 558 911 l 711 911 b 725 936 733 911 738 918 l 579 1149 b 536 1171 568 1165 554 1171 l 400 1171 b 357 1149 381 1171 368 1165 z "},"ü":{"ha":992,"x_min":0,"x_max":0,"o":"m 889 833 l 654 833 b 626 807 636 833 626 825 l 625 444 b 586 264 625 326 615 292 b 460 225 558 236 526 222 b 383 246 415 225 400 229 b 361 425 367 263 361 288 b 360 807 361 565 363 708 b 332 833 360 825 351 833 l 97 833 b 69 807 79 833 69 825 b 67 375 68 706 67 557 b 124 39 67 157 75 89 b 358 -19 161 1 228 -19 b 599 63 478 -19 517 -3 b 635 49 617 74 629 68 l 638 26 b 668 0 640 8 649 0 l 888 0 b 914 26 904 0 914 8 b 919 454 918 156 919 325 b 917 807 919 586 919 707 b 889 833 915 825 907 833 z m 522 915 l 690 915 b 717 942 707 915 717 924 l 717 1099 b 690 1125 717 1115 708 1125 l 522 1125 b 497 1099 506 1125 497 1117 l 497 942 b 522 915 497 924 504 915 z m 249 915 l 414 915 b 440 942 432 915 440 924 l 440 1099 b 414 1125 440 1115 432 1125 l 249 1125 b 224 1099 232 1125 224 1117 l 224 942 b 249 915 224 924 231 915 z "},"ù":{"ha":992,"x_min":0,"x_max":0,"o":"m 889 833 l 654 833 b 626 807 636 833 626 825 l 625 444 b 586 264 625 326 615 292 b 460 225 558 236 526 222 b 383 246 415 225 400 229 b 361 425 367 263 361 288 b 360 807 361 565 363 708 b 332 833 360 825 351 833 l 97 833 b 69 807 79 833 69 825 b 67 375 68 706 67 557 b 124 39 67 157 75 89 b 358 -19 161 1 228 -19 b 599 63 478 -19 517 -3 b 635 49 617 74 629 68 l 638 26 b 668 0 640 8 649 0 l 888 0 b 914 26 904 0 914 8 b 919 454 918 156 919 325 b 917 807 919 586 919 707 b 889 833 915 825 907 833 z m 606 939 l 503 1149 b 463 1174 494 1167 482 1174 l 300 1174 b 285 1146 278 1174 274 1165 l 417 933 b 460 911 428 917 440 911 l 588 911 b 606 939 610 911 617 919 z "},"v":{"ha":933,"x_min":0,"x_max":0,"o":"m 339 -1 b 626 -1 435 -4 539 -4 b 667 26 646 0 658 8 b 925 801 772 286 871 588 b 899 835 931 824 922 833 b 676 835 828 838 749 838 b 642 806 657 833 646 825 b 510 322 601 642 553 458 b 481 314 503 299 490 297 b 322 807 428 451 365 646 b 286 835 317 825 306 833 b 33 835 210 838 111 838 b 10 801 11 833 3 824 b 299 25 82 557 194 251 b 339 -1 307 8 319 0 z "},"w":{"ha":1383,"x_min":0,"x_max":0,"o":"m 242 -1 b 481 -1 308 -4 406 -4 b 517 26 500 0 511 8 l 653 428 b 679 436 660 453 671 454 b 829 26 725 307 783 149 b 867 -1 836 8 847 0 b 1126 -1 942 -3 1042 -3 b 1165 26 1146 0 1158 8 b 1382 801 1239 224 1339 565 b 1354 835 1386 824 1378 833 b 1136 835 1289 836 1197 836 b 1103 806 1117 833 1106 825 b 1008 397 1081 689 1050 540 b 983 389 1003 372 992 372 b 854 806 932 533 886 683 b 819 835 849 825 839 833 b 601 835 757 838 668 838 b 567 806 582 833 571 825 b 435 406 539 706 490 551 b 408 399 428 381 415 381 b 318 806 374 529 346 658 b 285 835 315 825 304 833 b 29 835 208 836 111 836 b 1 801 6 833 -3 824 b 206 26 47 568 149 208 b 242 -1 211 8 222 0 z "},"ẃ":{"ha":1383,"x_min":0,"x_max":0,"o":"m 242 -1 b 481 -1 308 -4 406 -4 b 517 26 500 0 511 8 l 653 428 b 679 436 660 453 671 454 b 829 26 725 307 783 149 b 867 -1 836 8 847 0 b 1126 -1 942 -3 1042 -3 b 1165 26 1146 0 1158 8 b 1382 801 1239 224 1339 565 b 1354 835 1386 824 1378 833 b 1136 835 1289 836 1197 836 b 1103 806 1117 833 1106 825 b 1008 397 1081 689 1050 540 b 983 389 1003 372 992 372 b 854 806 932 533 886 683 b 819 835 849 825 839 833 b 601 835 757 838 668 838 b 567 806 582 833 571 825 b 435 406 539 706 490 551 b 408 399 428 381 415 381 b 318 806 374 529 346 658 b 285 835 315 825 304 833 b 29 835 208 836 111 836 b 1 801 6 833 -3 824 b 206 26 47 568 149 208 b 242 -1 211 8 222 0 z m 557 913 l 679 913 b 722 935 697 913 711 918 l 857 1149 b 843 1175 869 1167 864 1175 l 685 1175 b 644 1151 665 1175 653 1168 l 538 940 b 557 913 528 921 533 913 z "},"ŵ":{"ha":1383,"x_min":0,"x_max":0,"o":"m 242 -1 b 481 -1 308 -4 406 -4 b 517 26 500 0 511 8 l 653 428 b 679 436 660 453 671 454 b 829 26 725 307 783 149 b 867 -1 836 8 847 0 b 1126 -1 942 -3 1042 -3 b 1165 26 1146 0 1158 8 b 1382 801 1239 224 1339 565 b 1354 835 1386 824 1378 833 b 1136 835 1289 836 1197 836 b 1103 806 1117 833 1106 825 b 1008 397 1081 689 1050 540 b 983 389 1003 372 992 372 b 854 806 932 533 886 683 b 819 835 849 825 839 833 b 601 835 757 838 668 838 b 567 806 582 833 571 825 b 435 406 539 706 490 551 b 408 399 428 381 415 381 b 318 806 374 529 346 658 b 285 835 315 825 304 833 b 29 835 208 836 111 836 b 1 801 6 833 -3 824 b 206 26 47 568 149 208 b 242 -1 211 8 222 0 z m 553 1150 l 400 938 b 413 913 386 919 390 913 l 549 913 b 592 933 568 913 581 918 l 663 1026 l 731 933 b 774 913 742 918 754 913 l 907 913 b 921 938 929 913 933 919 l 775 1150 b 732 1172 764 1167 750 1172 l 596 1172 b 553 1150 576 1172 564 1167 z "},"ẅ":{"ha":1383,"x_min":0,"x_max":0,"o":"m 242 -1 b 481 -1 308 -4 406 -4 b 517 26 500 0 511 8 l 653 428 b 679 436 660 453 671 454 b 829 26 725 307 783 149 b 867 -1 836 8 847 0 b 1126 -1 942 -3 1042 -3 b 1165 26 1146 0 1158 8 b 1382 801 1239 224 1339 565 b 1354 835 1386 824 1378 833 b 1136 835 1289 836 1197 836 b 1103 806 1117 833 1106 825 b 1008 397 1081 689 1050 540 b 983 389 1003 372 992 372 b 854 806 932 533 886 683 b 819 835 849 825 839 833 b 601 835 757 838 668 838 b 567 806 582 833 571 825 b 435 406 539 706 490 551 b 408 399 428 381 415 381 b 318 806 374 529 346 658 b 285 835 315 825 304 833 b 29 835 208 836 111 836 b 1 801 6 833 -3 824 b 206 26 47 568 149 208 b 242 -1 211 8 222 0 z m 718 917 l 886 917 b 913 943 903 917 913 925 l 913 1100 b 886 1126 913 1117 904 1126 l 718 1126 b 693 1100 701 1126 693 1118 l 693 943 b 718 917 693 925 700 917 z m 444 917 l 610 917 b 636 943 628 917 636 925 l 636 1100 b 610 1126 636 1117 628 1126 l 444 1126 b 419 1100 428 1126 419 1118 l 419 943 b 444 917 419 925 426 917 z "},"ẁ":{"ha":1383,"x_min":0,"x_max":0,"o":"m 242 -1 b 481 -1 308 -4 406 -4 b 517 26 500 0 511 8 l 653 428 b 679 436 660 453 671 454 b 829 26 725 307 783 149 b 867 -1 836 8 847 0 b 1126 -1 942 -3 1042 -3 b 1165 26 1146 0 1158 8 b 1382 801 1239 224 1339 565 b 1354 835 1386 824 1378 833 b 1136 835 1289 836 1197 836 b 1103 806 1117 833 1106 825 b 1008 397 1081 689 1050 540 b 983 389 1003 372 992 372 b 854 806 932 533 886 683 b 819 835 849 825 839 833 b 601 835 757 838 668 838 b 567 806 582 833 571 825 b 435 406 539 706 490 551 b 408 399 428 381 415 381 b 318 806 374 529 346 658 b 285 835 315 825 304 833 b 29 835 208 836 111 836 b 1 801 6 833 -3 824 b 206 26 47 568 149 208 b 242 -1 211 8 222 0 z m 803 940 l 700 1150 b 660 1175 692 1168 679 1175 l 497 1175 b 482 1147 475 1175 471 1167 l 614 935 b 657 913 625 918 638 913 l 785 913 b 803 940 807 913 814 921 z "},"x":{"ha":947,"x_min":0,"x_max":0,"o":"m 35 0 l 279 0 b 319 26 299 0 311 8 b 426 251 347 88 390 175 b 464 260 436 274 454 274 b 600 25 511 185 567 93 b 640 0 608 8 621 0 b 917 0 733 -1 826 -1 b 935 29 940 0 946 10 b 710 424 864 168 767 335 b 710 460 701 436 701 447 b 914 806 774 557 844 692 b 899 833 926 825 922 833 l 650 833 b 610 808 631 833 618 825 b 513 621 583 754 549 683 b 471 614 500 600 482 600 b 360 810 431 681 397 747 b 317 833 350 826 336 833 l 36 835 b 19 806 13 833 8 825 b 224 469 86 692 175 546 b 225 432 232 458 232 446 b 17 31 167 325 65 135 b 35 0 7 10 13 0 z "},"y":{"ha":931,"x_min":0,"x_max":0,"o":"m 299 -307 b 618 -101 531 -307 561 -260 l 682 76 b 925 801 782 322 874 601 b 899 835 931 824 922 833 b 676 835 828 838 749 838 b 642 806 657 833 646 825 b 510 331 601 644 553 464 b 481 322 503 307 490 306 b 322 807 428 457 365 649 b 286 835 317 825 306 833 b 33 835 210 838 111 838 b 10 801 11 833 3 824 b 299 38 82 561 194 261 b 339 11 307 21 319 13 l 378 10 l 365 -29 b 286 -75 353 -68 340 -75 l 72 -72 b 44 -97 54 -71 44 -79 l 44 -274 b 71 -301 44 -292 51 -300 b 299 -307 125 -304 217 -307 z "},"ý":{"ha":931,"x_min":0,"x_max":0,"o":"m 299 -307 b 618 -101 531 -307 561 -260 l 682 76 b 925 801 782 322 874 601 b 899 835 931 824 922 833 b 676 835 828 838 749 838 b 642 806 657 833 646 825 b 510 331 601 644 553 464 b 481 322 503 307 490 306 b 322 807 428 457 365 649 b 286 835 317 825 306 833 b 33 835 210 838 111 838 b 10 801 11 833 3 824 b 299 38 82 561 194 261 b 339 11 307 21 319 13 l 378 10 l 365 -29 b 286 -75 353 -68 340 -75 l 72 -72 b 44 -97 54 -71 44 -79 l 44 -274 b 71 -301 44 -292 51 -300 b 299 -307 125 -304 217 -307 z m 369 914 l 492 914 b 535 936 510 914 524 919 l 669 1150 b 656 1176 682 1168 676 1176 l 497 1176 b 457 1153 478 1176 465 1169 l 350 942 b 369 914 340 922 346 914 z "},"ŷ":{"ha":931,"x_min":0,"x_max":0,"o":"m 299 -307 b 618 -101 531 -307 561 -260 l 682 76 b 925 801 782 322 874 601 b 899 835 931 824 922 833 b 676 835 828 838 749 838 b 642 806 657 833 646 825 b 510 331 601 644 553 464 b 481 322 503 307 490 306 b 322 807 428 457 365 649 b 286 835 317 825 306 833 b 33 835 210 838 111 838 b 10 801 11 833 3 824 b 299 38 82 561 194 261 b 339 11 307 21 319 13 l 378 10 l 365 -29 b 286 -75 353 -68 340 -75 l 72 -72 b 44 -97 54 -71 44 -79 l 44 -274 b 71 -301 44 -292 51 -300 b 299 -307 125 -304 217 -307 z m 365 1151 l 213 939 b 225 914 199 921 203 914 l 361 914 b 404 935 381 914 393 919 l 475 1028 l 543 935 b 586 914 554 919 567 914 l 719 914 b 733 939 742 914 746 921 l 588 1151 b 544 1174 576 1168 563 1174 l 408 1174 b 365 1151 389 1174 376 1168 z "},"ÿ":{"ha":931,"x_min":0,"x_max":0,"o":"m 299 -307 b 618 -101 531 -307 561 -260 l 682 76 b 925 801 782 322 874 601 b 899 835 931 824 922 833 b 676 835 828 838 749 838 b 642 806 657 833 646 825 b 510 331 601 644 553 464 b 481 322 503 307 490 306 b 322 807 428 457 365 649 b 286 835 317 825 306 833 b 33 835 210 838 111 838 b 10 801 11 833 3 824 b 299 38 82 561 194 261 b 339 11 307 21 319 13 l 378 10 l 365 -29 b 286 -75 353 -68 340 -75 l 72 -72 b 44 -97 54 -71 44 -79 l 44 -274 b 71 -301 44 -292 51 -300 b 299 -307 125 -304 217 -307 z m 531 918 l 699 918 b 725 944 715 918 725 926 l 725 1101 b 699 1128 725 1118 717 1128 l 531 1128 b 506 1101 514 1128 506 1119 l 506 944 b 531 918 506 926 513 918 z m 257 918 l 422 918 b 449 944 440 918 449 926 l 449 1101 b 422 1128 449 1118 440 1128 l 257 1128 b 232 1101 240 1128 232 1119 l 232 944 b 257 918 232 926 239 918 z "},"ỳ":{"ha":931,"x_min":0,"x_max":0,"o":"m 299 -307 b 618 -101 531 -307 561 -260 l 682 76 b 925 801 782 322 874 601 b 899 835 931 824 922 833 b 676 835 828 838 749 838 b 642 806 657 833 646 825 b 510 331 601 644 553 464 b 481 322 503 307 490 306 b 322 807 428 457 365 649 b 286 835 317 825 306 833 b 33 835 210 838 111 838 b 10 801 11 833 3 824 b 299 38 82 561 194 261 b 339 11 307 21 319 13 l 378 10 l 365 -29 b 286 -75 353 -68 340 -75 l 72 -72 b 44 -97 54 -71 44 -79 l 44 -274 b 71 -301 44 -292 51 -300 b 299 -307 125 -304 217 -307 z m 615 942 l 513 1151 b 472 1176 504 1169 492 1176 l 310 1176 b 294 1149 288 1176 283 1168 l 426 936 b 469 914 438 919 450 914 l 597 914 b 615 942 619 914 626 922 z "},"z":{"ha":868,"x_min":0,"x_max":0,"o":"m 63 0 l 810 0 b 836 26 826 0 836 8 l 836 203 b 810 229 836 221 828 229 l 453 229 b 444 251 432 229 429 236 b 800 588 529 336 696 492 b 819 632 813 600 819 614 l 819 807 b 792 833 819 825 811 833 l 67 833 b 40 807 49 833 40 825 l 40 632 b 67 604 40 614 47 604 l 403 606 b 413 585 424 606 426 600 b 54 239 314 486 147 335 b 36 193 43 226 36 211 l 36 26 b 63 0 36 8 44 0 z "}," ":{"ha":194,"x_min":0,"x_max":0,"o":""},".":{"ha":349,"x_min":0,"x_max":0,"o":"m 29 271 b 29 26 28 211 28 88 b 57 0 31 8 39 0 l 292 0 b 319 26 310 0 319 8 b 319 271 322 88 322 211 b 292 297 319 289 310 297 l 57 297 b 29 271 40 297 31 289 z "},",":{"ha":365,"x_min":0,"x_max":0,"o":"m 56 -249 l 178 -250 b 218 -224 196 -249 210 -242 l 324 -12 b 336 39 332 4 336 19 l 336 271 b 310 297 336 289 328 297 l 61 297 b 35 271 43 297 35 290 l 35 26 b 61 0 35 8 42 0 l 135 0 b 146 -19 149 0 153 -6 l 38 -219 b 56 -249 26 -240 32 -249 z "},":":{"ha":367,"x_min":0,"x_max":0,"o":"m 40 268 b 40 26 39 208 39 86 b 68 0 42 8 50 0 l 303 0 b 331 26 321 0 331 8 b 331 268 333 86 333 208 b 303 293 331 286 321 293 l 68 293 b 40 268 51 293 42 286 z m 40 767 b 40 525 39 708 39 586 b 68 500 42 508 50 500 l 303 500 b 331 525 321 500 331 508 b 331 767 333 586 333 708 b 303 793 331 785 321 793 l 68 793 b 40 767 51 793 42 785 z "},";":{"ha":382,"x_min":0,"x_max":0,"o":"m 64 -246 l 186 -247 b 226 -221 204 -246 218 -239 l 332 -12 b 344 39 340 4 344 19 l 344 268 b 318 293 344 286 336 293 l 69 293 b 43 268 51 293 43 286 l 43 26 b 69 0 43 8 50 0 l 143 0 b 154 -19 157 0 161 -6 l 46 -217 b 64 -246 35 -237 40 -246 z m 46 768 b 46 526 44 710 44 588 b 74 501 47 510 56 501 l 308 501 b 336 526 326 501 336 510 b 336 768 339 588 339 710 b 308 794 336 786 326 794 l 74 794 b 46 768 57 794 47 786 z "},"!":{"ha":497,"x_min":0,"x_max":0,"o":"m 379 379 l 408 747 b 411 801 410 765 411 782 l 414 1024 b 388 1050 414 1042 407 1050 l 111 1050 b 85 1024 93 1050 85 1042 l 86 801 b 89 747 86 783 88 767 l 117 379 b 146 351 118 361 126 351 l 351 351 b 379 379 368 351 378 360 z m 408 26 l 408 263 b 382 289 408 281 400 289 l 115 289 b 89 263 97 289 89 281 l 89 26 b 115 0 89 8 97 0 l 382 0 b 408 26 399 0 408 8 z "},"¡":{"ha":499,"x_min":0,"x_max":0,"o":"m 410 111 l 381 479 b 353 507 379 499 369 507 l 147 507 b 118 479 128 507 119 497 l 90 111 b 88 57 89 92 88 75 l 86 -165 b 113 -192 86 -183 94 -192 l 389 -192 b 415 -165 408 -192 415 -183 l 413 57 b 410 111 413 76 411 93 z m 410 596 l 410 832 b 383 858 410 850 400 858 l 117 858 b 90 832 99 858 90 850 l 90 596 b 117 569 90 578 99 569 l 383 569 b 410 596 401 569 410 578 z "},"?":{"ha":1017,"x_min":0,"x_max":0,"o":"m 331 340 l 582 340 b 611 367 600 340 610 349 l 611 376 b 626 424 613 394 617 414 b 767 475 639 438 650 446 b 933 554 854 497 897 517 b 997 772 981 606 997 665 b 926 993 997 869 974 947 b 511 1069 872 1043 771 1069 b 96 985 251 1069 151 1039 b 4 736 49 938 21 857 b 28 710 3 718 10 710 l 307 715 b 339 743 325 717 335 724 b 369 811 346 775 354 794 b 510 840 386 826 415 840 b 651 814 604 840 635 831 b 667 761 663 803 667 783 b 651 714 667 738 663 725 b 540 674 635 696 588 685 b 346 592 426 649 378 624 b 297 425 308 554 292 501 l 301 367 b 331 340 304 349 313 340 z m 321 0 l 592 0 b 619 26 610 0 618 8 b 618 251 621 83 621 169 b 590 278 618 268 610 278 l 322 278 b 294 251 304 278 294 269 b 293 26 292 169 292 83 b 321 0 294 8 303 0 z "},"¿":{"ha":992,"x_min":0,"x_max":0,"o":"m 661 519 l 410 519 b 381 493 392 519 382 511 l 381 483 b 365 436 379 465 375 446 b 225 385 353 422 342 414 b 58 306 138 363 94 343 b -6 88 11 254 -6 194 b 65 -133 -6 -10 18 -87 b 481 -210 119 -183 221 -210 b 896 -125 740 -210 840 -179 b 988 124 943 -78 971 3 b 964 150 989 142 982 150 l 685 144 b 653 117 667 143 657 136 b 622 49 646 85 638 65 b 482 19 606 33 576 19 b 340 46 388 19 357 29 b 325 99 329 57 325 76 b 340 146 325 122 329 135 b 451 186 357 164 404 175 b 646 268 565 211 614 236 b 694 435 683 306 700 358 l 690 493 b 661 519 688 511 679 519 z m 671 860 l 400 860 b 372 833 382 860 374 851 b 374 608 371 776 371 690 b 401 582 374 592 382 582 l 669 582 b 697 608 688 582 697 590 b 699 833 700 690 700 776 b 671 860 697 851 689 860 z "},"•":{"ha":393,"x_min":0,"x_max":0,"o":"m 197 307 b 369 481 292 307 369 386 b 197 653 369 575 292 653 b 25 481 103 653 25 575 b 197 307 25 386 103 307 z "},"*":{"ha":808,"x_min":0,"x_max":0,"o":"m 296 315 l 392 489 b 422 489 403 507 411 507 l 517 315 b 551 308 525 300 536 297 l 719 433 b 722 468 733 444 735 456 l 579 611 b 588 642 565 626 568 636 l 785 693 b 800 724 801 697 807 707 l 722 911 b 689 922 717 928 706 932 l 529 832 b 507 847 511 821 504 826 l 529 1031 b 506 1057 531 1049 524 1057 l 303 1057 b 279 1031 285 1057 278 1049 l 304 847 b 282 832 307 826 300 821 l 121 922 b 88 911 106 932 94 928 l 10 726 b 25 696 3 711 7 700 l 224 642 b 232 611 243 636 246 626 l 90 469 b 93 435 78 457 78 446 l 261 307 b 296 315 275 297 286 299 z "},"/":{"ha":540,"x_min":0,"x_max":0,"o":"m 554 1096 l 372 1096 b 335 1069 353 1096 340 1088 l -83 -258 b -60 -290 -90 -281 -83 -290 l 125 -290 b 161 -262 144 -290 156 -282 l 578 1065 b 554 1096 585 1086 578 1096 z "},"\\":{"ha":540,"x_min":0,"x_max":0,"o":"m 168 1096 l -14 1096 b -37 1065 -37 1096 -44 1086 l 379 -262 b 415 -290 385 -282 396 -290 l 600 -290 b 624 -258 624 -290 631 -281 l 206 1069 b 168 1096 200 1088 188 1096 z "},"-":{"ha":590,"x_min":0,"x_max":0,"o":"m 26 560 b 26 393 24 501 24 450 b 54 367 26 376 35 367 l 538 367 b 565 393 554 367 564 375 b 565 560 567 450 567 501 b 536 586 564 578 556 586 l 54 586 b 26 560 36 586 26 579 z "},"–":{"ha":632,"x_min":0,"x_max":0,"o":"m 25 626 b 25 460 24 572 24 513 b 53 433 26 442 35 433 l 579 433 b 606 460 596 433 606 442 b 606 626 607 513 607 572 b 579 653 606 644 597 653 l 53 653 b 25 626 35 653 26 646 z "},"—":{"ha":1135,"x_min":0,"x_max":0,"o":"m 26 568 b 26 394 25 513 25 450 b 54 368 26 378 35 368 l 1081 368 b 1108 394 1099 368 1108 376 b 1108 568 1110 450 1110 513 b 1081 596 1108 586 1100 596 l 54 596 b 26 568 36 596 26 588 z "},"(":{"ha":450,"x_min":0,"x_max":0,"o":"m 244 -285 l 399 -285 b 415 -261 417 -285 422 -278 b 310 381 351 -114 310 128 b 415 1026 310 628 351 876 b 399 1050 422 1042 418 1050 l 243 1050 b 200 1026 224 1050 210 1043 b 51 381 107 867 51 626 b 201 -261 51 136 107 -103 b 244 -285 211 -278 225 -285 z "},")":{"ha":450,"x_min":0,"x_max":0,"o":"m 206 1049 l 51 1049 b 35 1025 33 1049 28 1042 b 140 383 99 878 140 636 b 35 -262 140 136 99 -112 b 51 -286 28 -278 32 -286 l 207 -286 b 250 -262 226 -286 240 -279 b 399 383 343 -103 399 138 b 249 1025 399 628 343 867 b 206 1049 239 1042 225 1049 z "},"{":{"ha":538,"x_min":0,"x_max":0,"o":"m 413 -236 l 494 -236 b 521 -208 513 -236 521 -228 l 522 -40 b 494 -14 522 -22 514 -14 l 488 -14 b 411 96 435 -14 411 24 l 414 185 b 339 396 415 301 385 351 b 338 451 325 413 325 435 b 414 661 385 499 415 549 l 411 713 b 486 832 411 779 431 832 l 494 832 b 521 860 513 832 521 840 l 521 1026 b 494 1053 521 1044 514 1053 l 414 1053 b 97 776 178 1053 97 946 l 100 681 b 47 540 101 625 100 576 b 25 500 32 532 25 519 l 25 347 b 49 308 25 329 32 317 b 100 158 100 274 101 222 l 97 29 b 413 -236 97 -150 193 -236 z "},"}":{"ha":538,"x_min":0,"x_max":0,"o":"m 43 -236 l 125 -236 b 440 29 344 -236 440 -150 l 438 158 b 489 308 436 222 438 274 b 513 347 506 317 513 329 l 513 500 b 490 540 513 519 506 532 b 438 681 438 576 436 625 l 440 776 b 124 1053 440 946 360 1053 l 43 1053 b 17 1026 24 1053 17 1044 l 17 860 b 43 832 17 840 25 832 l 51 832 b 126 713 107 832 126 779 l 124 661 b 200 451 122 549 153 499 b 199 396 213 435 213 413 b 124 185 153 351 122 301 l 126 96 b 50 -14 126 24 103 -14 l 43 -14 b 15 -40 24 -14 15 -22 l 17 -208 b 43 -236 17 -228 25 -236 z "},"[":{"ha":485,"x_min":0,"x_max":0,"o":"m 442 -193 l 442 -42 b 415 -14 442 -24 433 -14 l 343 -14 b 322 7 329 -14 322 -7 l 322 821 b 343 843 322 835 329 843 l 415 843 b 442 869 433 843 442 851 l 442 1024 b 415 1050 442 1042 433 1050 l 111 1050 b 85 1024 93 1050 85 1042 l 85 -193 b 111 -221 85 -211 92 -221 l 415 -221 b 442 -193 433 -221 442 -212 z "},"]":{"ha":482,"x_min":0,"x_max":0,"o":"m 40 -42 l 40 -193 b 67 -221 40 -212 49 -221 l 371 -221 b 397 -193 390 -221 397 -211 l 397 1024 b 371 1050 397 1042 389 1050 l 67 1050 b 40 1024 49 1050 40 1042 l 40 869 b 67 843 40 851 49 843 l 139 843 b 160 821 153 843 160 835 l 160 7 b 139 -14 160 -7 153 -14 l 67 -14 b 40 -42 49 -14 40 -24 z "},"“":{"ha":718,"x_min":0,"x_max":0,"o":"m 303 1050 l 181 1051 b 140 1025 163 1050 149 1043 l 35 814 b 22 763 26 797 22 782 l 22 531 b 49 504 22 513 31 504 l 297 504 b 324 531 315 504 324 511 l 324 775 b 297 801 324 793 317 801 l 224 801 b 213 821 210 801 206 807 l 321 1021 b 303 1050 332 1042 326 1050 z m 663 1050 l 540 1051 b 500 1025 522 1050 508 1043 l 394 814 b 382 763 386 797 382 782 l 382 531 b 408 504 382 513 390 504 l 657 504 b 683 531 675 504 683 511 l 683 775 b 657 801 683 793 676 801 l 583 801 b 572 821 569 801 565 807 l 681 1021 b 663 1050 692 1042 686 1050 z "},"”":{"ha":715,"x_min":0,"x_max":0,"o":"m 413 504 l 535 503 b 575 529 553 504 567 511 l 681 740 b 693 792 689 757 693 772 l 693 1024 b 667 1050 693 1042 685 1050 l 418 1050 b 392 1024 400 1050 392 1043 l 392 779 b 418 753 392 761 399 753 l 492 753 b 503 733 506 753 510 747 l 394 533 b 413 504 383 513 389 504 z m 53 504 l 175 503 b 215 529 193 504 207 511 l 321 740 b 333 792 329 757 333 772 l 333 1024 b 307 1050 333 1042 325 1050 l 58 1050 b 32 1024 40 1050 32 1043 l 32 779 b 58 753 32 761 39 753 l 132 753 b 143 733 146 753 150 747 l 35 533 b 53 504 24 513 29 504 z "},"‘":{"ha":358,"x_min":0,"x_max":0,"o":"m 303 1050 l 181 1051 b 140 1025 163 1050 149 1043 l 35 814 b 22 763 26 797 22 782 l 22 531 b 49 504 22 513 31 504 l 297 504 b 324 531 315 504 324 511 l 324 775 b 297 801 324 793 317 801 l 224 801 b 213 821 210 801 206 807 l 321 1021 b 303 1050 332 1042 326 1050 z "},"’":{"ha":358,"x_min":0,"x_max":0,"o":"m 56 504 l 178 503 b 218 529 196 504 210 511 l 324 740 b 336 792 332 757 336 772 l 336 1024 b 310 1050 336 1042 328 1050 l 61 1050 b 35 1024 43 1050 35 1043 l 35 779 b 61 753 35 761 42 753 l 135 753 b 146 733 149 753 153 747 l 38 533 b 56 504 26 513 32 504 z "},"\"":{"ha":508,"x_min":0,"x_max":0,"o":"m 210 1050 l 61 1050 b 35 1024 43 1050 35 1042 l 35 888 b 36 833 35 869 35 853 l 47 638 b 75 611 47 619 57 611 l 192 611 b 221 638 210 611 219 619 l 235 833 b 238 888 236 851 238 868 l 238 1024 b 210 1050 238 1042 229 1050 z m 464 1050 l 315 1050 b 289 1024 297 1050 289 1042 l 289 888 b 290 833 289 869 289 853 l 301 638 b 329 611 301 619 311 611 l 447 611 b 475 638 464 611 474 619 l 489 833 b 492 888 490 851 492 868 l 492 1024 b 464 1050 492 1042 483 1050 z "},"'":{"ha":260,"x_min":0,"x_max":0,"o":"m 214 1050 l 61 1050 b 35 1024 43 1050 35 1042 l 35 888 b 36 833 35 869 35 853 l 47 638 b 75 611 47 619 57 611 l 196 611 b 225 638 214 611 224 619 l 239 833 b 242 888 240 851 242 868 l 242 1024 b 214 1050 242 1042 233 1050 z "},"@":{"ha":1431,"x_min":0,"x_max":0,"o":"m 710 -221 b 1135 -183 904 -221 1019 -208 b 1143 -168 1140 -182 1143 -176 l 1143 -103 b 1126 -89 1143 -93 1136 -86 b 710 -129 1024 -111 914 -129 b 250 -26 403 -129 310 -86 b 149 443 193 31 149 108 b 257 904 149 756 200 846 b 728 1001 317 964 411 1001 b 1182 904 1026 1001 1122 965 b 1282 443 1239 847 1282 753 b 1181 135 1282 172 1242 135 b 1124 201 1143 135 1124 154 l 1124 447 b 1121 835 1124 600 1122 753 b 1094 861 1121 853 1113 861 l 868 861 b 839 835 850 861 840 853 l 835 797 b 804 786 831 776 821 774 b 589 878 743 850 688 878 b 351 811 472 878 396 856 b 267 435 299 760 267 663 b 347 57 267 190 299 106 b 589 -7 386 18 453 -7 b 783 49 658 -7 721 11 b 846 85 818 69 831 85 b 882 57 861 85 867 74 b 1067 -15 917 17 958 -15 b 1378 443 1279 -15 1378 43 b 1250 971 1378 776 1324 896 b 717 1089 1179 1042 1060 1089 b 188 971 376 1089 258 1042 b 53 443 115 896 53 778 b 181 -104 53 94 108 -26 b 710 -221 250 -174 369 -221 z m 675 222 b 592 254 631 222 610 235 b 564 440 569 274 564 326 b 596 617 564 540 572 592 b 689 643 614 635 640 643 b 789 596 725 643 761 625 b 836 438 822 564 836 531 b 789 281 836 346 821 311 b 675 222 750 244 719 222 z "},"&":{"ha":1172,"x_min":0,"x_max":0,"o":"m 449 -17 b 718 51 599 -17 628 -6 b 765 47 736 63 750 61 l 792 19 b 840 0 806 7 821 0 l 1139 0 b 1151 26 1163 0 1165 8 l 999 222 l 1099 572 b 1075 604 1104 594 1097 604 l 824 606 b 789 578 804 606 793 597 l 758 449 l 475 711 b 433 783 446 740 433 757 b 447 822 433 804 439 814 b 569 843 460 836 486 843 b 693 815 654 843 679 829 b 722 758 704 803 714 783 b 757 733 728 742 738 733 l 1024 736 b 1047 763 1042 736 1050 744 b 965 975 1031 860 1006 933 b 564 1068 908 1031 831 1067 b 167 988 308 1069 228 1049 b 107 808 129 950 107 886 b 175 606 107 726 128 664 b 171 564 189 590 188 576 b 38 292 65 475 38 421 b 97 56 38 181 53 100 b 449 -17 151 1 229 -17 z m 472 204 b 383 231 424 204 401 213 b 358 318 371 243 358 269 b 379 399 358 360 365 385 b 410 394 386 406 399 404 l 543 276 b 547 232 560 263 560 249 b 472 204 526 213 503 204 z "},"©":{"ha":1236,"x_min":0,"x_max":0,"o":"m 619 -56 b 1072 51 883 -56 994 -25 b 1188 514 1146 126 1188 274 b 1072 974 1188 751 1146 899 b 619 1079 996 1050 883 1079 b 167 974 356 1079 243 1050 b 49 514 92 897 49 750 b 167 51 49 276 92 128 b 619 -56 244 -25 357 -56 z m 619 4 b 215 97 382 4 283 32 b 115 514 153 160 115 292 b 215 928 115 735 153 865 b 619 1019 282 994 381 1019 b 1024 928 858 1019 957 994 b 1121 514 1085 867 1121 736 b 1024 97 1121 290 1085 158 b 619 4 957 32 857 4 z m 617 117 b 949 188 821 117 904 143 b 1014 433 986 226 1006 300 b 992 460 1015 450 1008 458 b 771 463 931 464 826 465 b 746 438 756 461 747 454 b 719 335 739 376 733 349 b 618 313 708 322 692 313 b 513 335 558 313 529 318 b 485 503 496 353 485 390 b 515 689 485 611 499 671 b 617 713 531 706 554 713 b 715 690 686 713 704 701 b 746 611 729 676 738 657 b 774 588 749 596 758 588 b 996 588 835 586 932 586 b 1017 613 1011 588 1018 594 b 943 843 1006 724 983 801 b 617 908 903 882 821 908 b 299 840 424 908 344 886 b 221 506 254 794 221 696 b 293 188 221 322 247 233 b 617 117 339 142 411 117 z "},"®":{"ha":554,"x_min":0,"x_max":0,"o":"m 279 583 b 493 631 418 583 464 603 b 543 826 521 660 543 714 b 492 1024 543 939 521 993 b 279 1069 464 1051 417 1069 b 63 1024 138 1069 90 1051 b 11 826 33 993 11 939 b 63 631 11 714 33 660 b 279 583 90 603 138 583 z m 279 633 b 100 667 156 633 122 647 b 67 826 79 688 67 740 b 100 988 67 914 79 967 b 279 1019 121 1007 156 1019 b 454 988 399 1019 433 1007 b 488 826 476 967 488 914 b 454 667 488 740 476 688 b 279 633 433 647 400 633 z m 136 683 l 217 683 b 225 690 224 683 225 688 b 225 767 224 715 224 740 l 293 767 b 321 760 308 767 317 765 b 329 735 326 756 329 746 l 329 690 b 338 683 329 686 332 683 l 422 683 b 429 692 426 683 429 688 l 428 744 b 413 800 428 769 425 789 b 403 813 407 806 403 808 b 417 832 403 819 407 824 b 435 888 428 843 435 857 b 414 954 435 922 429 940 b 319 975 399 969 371 975 l 136 975 b 129 967 132 975 129 971 b 129 690 128 900 128 757 b 136 683 129 686 132 683 z m 301 838 l 224 838 b 225 908 224 869 224 889 l 299 908 b 326 901 313 908 322 907 b 333 874 331 896 333 888 b 326 846 333 860 331 850 b 301 838 321 840 314 838 z "},"™":{"ha":682,"x_min":0,"x_max":0,"o":"m 118 758 l 193 758 b 201 764 199 758 201 760 l 200 982 l 285 981 b 293 986 289 981 293 982 l 292 1044 b 283 1050 292 1049 288 1050 l 24 1050 b 15 1044 19 1050 15 1049 b 14 988 14 1026 14 1003 b 21 981 14 982 15 981 l 111 982 l 110 764 b 118 758 110 760 113 758 z m 324 758 l 381 758 b 389 765 386 758 389 760 l 389 929 b 392 935 389 933 389 935 b 396 929 394 935 396 932 l 438 765 b 446 758 439 760 440 758 l 503 758 b 513 765 508 758 510 760 b 553 929 525 818 540 869 b 558 935 554 933 556 935 b 561 929 561 935 561 933 l 563 765 b 569 758 563 760 564 758 l 643 758 b 650 765 647 758 650 760 l 650 1042 b 642 1050 650 1047 647 1050 l 539 1050 b 531 1042 535 1050 532 1047 b 492 881 519 986 506 938 b 488 875 492 876 490 875 b 483 881 486 875 485 876 b 446 1042 472 938 458 992 b 438 1050 446 1047 443 1050 l 324 1050 b 317 1043 319 1050 317 1047 l 317 764 b 324 758 317 760 319 758 z "},"$":{"ha":1090,"x_min":0,"x_max":0,"o":"m 524 -92 l 586 -92 b 613 -65 603 -92 613 -85 l 611 3 b 983 82 836 7 931 31 b 1053 313 1029 126 1053 201 b 981 581 1053 458 1036 525 b 615 669 928 635 844 646 b 388 711 435 686 407 693 b 371 768 375 722 371 743 b 389 824 371 789 376 813 b 546 850 408 842 443 849 b 700 822 651 851 683 838 b 728 757 711 813 719 792 b 761 733 732 742 743 733 l 1024 736 b 1047 761 1040 736 1049 744 b 975 979 1038 867 1015 939 b 611 1053 924 1031 833 1050 l 613 1118 b 586 1144 613 1136 604 1144 l 524 1144 b 497 1118 506 1144 497 1136 l 499 1053 b 124 971 274 1049 176 1022 b 51 746 79 928 51 850 b 114 511 51 626 72 551 b 463 418 169 457 279 433 b 710 376 638 401 686 397 b 732 301 725 361 732 336 b 714 236 732 271 728 249 b 558 208 696 218 658 208 b 404 239 457 208 424 219 b 372 319 389 253 382 275 b 340 346 369 338 358 346 l 75 347 b 49 321 56 347 47 339 b 121 85 60 203 82 124 b 497 4 175 32 276 8 l 497 -65 b 524 -92 496 -83 504 -92 z "},"¥":{"ha":1119,"x_min":0,"x_max":0,"o":"m 35 619 b 36 465 33 572 35 511 b 64 439 38 447 46 439 l 385 439 l 408 406 b 421 372 415 394 419 385 l 63 372 b 35 344 46 372 36 364 b 36 192 33 299 35 238 b 64 164 38 174 46 164 l 422 164 l 422 26 b 450 0 422 10 431 0 b 724 0 524 -1 651 -1 b 750 26 740 0 750 8 l 749 164 l 1044 164 b 1072 192 1063 164 1072 172 b 1074 344 1075 238 1075 299 b 1046 372 1072 363 1064 372 l 743 372 b 756 408 743 385 746 399 l 778 439 l 1044 439 b 1072 465 1063 439 1072 446 b 1072 619 1075 511 1074 572 b 1044 646 1071 636 1063 646 l 921 646 b 1132 1019 1011 785 1085 914 b 1111 1051 1140 1040 1135 1051 b 856 1051 1031 1054 922 1054 b 814 1025 836 1051 822 1043 b 621 717 769 940 689 808 b 575 710 608 697 588 699 b 375 1025 506 806 429 924 b 333 1051 365 1043 353 1050 b 38 1051 242 1053 149 1053 b 18 1019 15 1050 8 1040 b 242 646 64 922 151 783 l 63 646 b 35 619 46 646 36 638 z "},"+":{"ha":847,"x_min":0,"x_max":0,"o":"m 25 647 b 25 489 24 593 24 540 b 53 463 25 471 33 463 l 308 463 l 308 211 b 335 185 308 194 315 185 b 513 185 393 182 453 182 b 539 211 531 185 539 193 l 539 463 l 794 463 b 822 489 813 463 821 471 l 822 647 b 794 674 821 665 813 674 l 539 674 l 539 925 b 513 953 539 943 532 951 b 335 953 453 954 393 954 b 308 925 317 951 308 943 l 308 674 l 53 674 b 25 647 35 674 25 665 z "},"%":{"ha":1219,"x_min":0,"x_max":0,"o":"m 299 561 b 529 610 443 561 503 583 b 583 813 560 639 583 688 b 528 1025 583 942 560 996 b 297 1074 500 1050 443 1074 b 65 1024 147 1074 93 1050 b 8 813 35 994 8 942 b 64 610 8 689 32 639 b 299 561 92 585 149 561 z m 296 717 b 243 729 265 717 249 722 b 225 814 232 738 225 756 b 243 907 225 878 233 899 b 296 919 251 914 267 919 b 350 907 326 919 343 913 b 368 814 361 899 368 878 b 350 729 368 756 361 738 b 296 717 343 724 328 717 z m 1085 1050 l 935 1050 b 890 1028 915 1050 903 1044 l 129 26 b 142 0 115 8 119 0 l 292 0 b 336 22 311 0 325 7 l 1099 1024 b 1085 1050 1111 1042 1107 1050 z m 926 -22 b 1157 26 1071 -22 1131 0 b 1211 229 1188 56 1211 104 b 1156 442 1211 358 1188 413 b 925 490 1128 467 1071 490 b 693 440 775 490 721 467 b 636 229 663 411 636 358 b 692 26 636 106 660 56 b 926 -22 719 1 776 -22 z m 924 133 b 871 146 893 133 876 139 b 853 231 860 154 853 172 b 871 324 853 294 861 315 b 924 336 879 331 894 336 b 978 324 954 336 971 329 b 996 231 989 315 996 294 b 978 146 996 172 989 154 b 924 133 971 140 956 133 z "},"̈":{"ha":0,"x_min":0,"x_max":0,"o":"m 325 946 l 497 946 b 524 972 514 946 524 954 l 524 1135 b 497 1161 524 1151 515 1161 l 325 1161 b 299 1135 307 1161 299 1153 l 299 972 b 325 946 299 954 306 946 z m 44 946 l 214 946 b 240 972 232 946 240 954 l 240 1135 b 214 1161 240 1151 232 1161 l 44 1161 b 18 1135 26 1161 18 1153 l 18 972 b 44 946 18 954 25 946 z "},"̇":{"ha":0,"x_min":0,"x_max":0,"o":"m 215 1164 l 42 1164 b 15 1138 24 1164 15 1156 l 15 972 b 42 946 15 954 24 946 l 215 946 b 242 972 233 946 242 954 l 242 1138 b 215 1164 242 1156 235 1164 z "},"̀":{"ha":0,"x_min":0,"x_max":0,"o":"m 350 969 l 244 1186 b 204 1213 236 1204 224 1213 l 38 1213 b 21 1183 14 1213 10 1203 l 157 964 b 200 940 168 947 181 940 l 332 940 b 350 969 354 940 361 950 z "},"́":{"ha":0,"x_min":0,"x_max":0,"o":"m 11 940 l 136 940 b 181 964 156 940 169 947 l 319 1185 b 304 1213 332 1203 326 1213 l 142 1213 b 101 1188 122 1213 110 1204 l -8 969 b 11 940 -18 950 -12 940 z "},"̋":{"ha":0,"x_min":0,"x_max":0,"o":"m 43 939 l 167 939 b 210 964 186 939 200 947 l 328 1182 b 310 1211 338 1201 333 1211 l 153 1211 b 114 1185 133 1211 121 1203 l 22 969 b 43 939 14 949 21 939 z m 293 939 l 424 939 b 467 963 443 939 457 946 l 600 1182 b 585 1211 613 1201 607 1211 l 421 1211 b 381 1185 401 1211 389 1203 l 275 968 b 293 939 265 949 271 939 z "},"̂":{"ha":0,"x_min":0,"x_max":0,"o":"m 181 1186 l 24 967 b 38 940 10 949 14 940 l 176 940 b 221 963 196 940 210 947 l 293 1058 l 363 963 b 407 940 374 947 388 940 l 543 940 b 558 967 567 940 571 949 l 408 1186 b 364 1210 397 1203 383 1210 l 225 1210 b 181 1186 206 1210 192 1203 z "},"̌":{"ha":0,"x_min":0,"x_max":0,"o":"m 24 1183 l 181 964 b 225 940 192 947 206 940 l 364 940 b 408 964 383 940 397 947 l 558 1183 b 543 1210 571 1201 567 1210 l 407 1210 b 363 1188 388 1210 374 1203 l 293 1092 l 221 1188 b 176 1210 210 1203 196 1210 l 38 1210 b 24 1183 14 1210 10 1201 z "},"̆":{"ha":0,"x_min":0,"x_max":0,"o":"m 253 918 b 485 1110 383 918 471 994 b 460 1138 486 1128 479 1138 l 319 1138 b 294 1110 301 1138 293 1129 b 253 1063 293 1079 278 1063 b 211 1110 228 1063 213 1079 b 185 1138 211 1128 204 1138 l 43 1138 b 18 1110 25 1138 17 1129 b 253 918 32 996 110 918 z "},"̊":{"ha":0,"x_min":0,"x_max":0,"o":"m 221 904 b 422 1090 338 904 422 983 b 221 1276 422 1197 338 1276 b 18 1090 103 1276 18 1197 b 221 904 18 983 103 904 z m 219 1028 b 161 1090 186 1028 161 1054 b 219 1153 161 1126 186 1153 b 279 1090 254 1153 281 1126 b 219 1028 281 1054 254 1028 z "},"̃":{"ha":0,"x_min":0,"x_max":0,"o":"m 375 919 b 472 956 415 919 447 932 b 490 1007 485 971 490 988 l 490 1111 b 467 1122 490 1133 483 1138 b 381 1094 439 1100 417 1094 b 272 1121 343 1094 310 1107 b 136 1153 233 1136 189 1153 b 38 1117 97 1153 64 1140 b 18 1067 24 1101 18 1086 l 18 961 b 43 949 18 938 26 935 b 131 976 74 971 96 976 b 240 950 169 976 201 964 b 375 919 279 935 324 919 z "},"̄":{"ha":0,"x_min":0,"x_max":0,"o":"m 463 1124 l 13 1124 b -14 1096 -4 1124 -14 1115 l -14 983 b 13 957 -14 967 -6 957 l 463 957 b 490 983 481 957 490 965 l 490 1096 b 463 1124 490 1114 482 1124 z "},"̒":{"ha":0,"x_min":0,"x_max":0,"o":"m 196 1296 l 110 1296 b 68 1272 90 1296 78 1289 l -12 1124 b -25 1074 -21 1108 -25 1092 l -25 951 b 1 925 -25 933 -17 925 l 182 925 b 208 951 200 925 208 932 l 208 1100 b 182 1126 208 1118 200 1126 l 139 1126 l 214 1267 b 196 1296 224 1288 218 1296 z "},"̦":{"ha":0,"x_min":0,"x_max":0,"o":"m 40 -421 l 126 -421 b 168 -397 146 -421 158 -414 l 249 -249 b 261 -199 257 -233 261 -217 l 261 -76 b 235 -50 261 -58 253 -50 l 54 -50 b 28 -76 36 -50 28 -57 l 28 -225 b 54 -251 28 -243 36 -251 l 97 -251 l 22 -392 b 40 -421 13 -412 18 -421 z "},"̧":{"ha":0,"x_min":0,"x_max":0,"o":"m 268 29 l 138 29 b 97 3 118 29 106 21 l -3 -212 b 17 -243 -12 -233 -7 -243 l 176 -243 b 214 -217 196 -243 208 -235 l 290 -3 b 268 29 299 19 292 29 z "},"̨":{"ha":0,"x_min":0,"x_max":0,"o":"m 178 -269 l 257 -269 b 282 -243 274 -269 283 -261 l 281 -139 b 254 -111 281 -121 272 -111 l 208 -111 b 174 -87 183 -111 174 -107 b 238 0 174 -61 190 -39 l 203 71 b -15 -126 90 26 -15 -11 b 178 -269 -15 -228 67 -269 z "},"̵":{"ha":0,"x_min":0,"x_max":0,"o":"m 44 368 l 535 368 b 561 394 553 368 561 376 l 561 528 b 535 554 561 546 554 554 l 44 554 b 18 528 26 554 18 546 l 18 394 b 44 368 18 378 26 368 z "},"̷":{"ha":0,"x_min":0,"x_max":0,"o":"m -15 364 l -15 226 b 11 214 -15 203 -7 199 l 374 504 b 396 550 389 517 396 531 l 396 689 b 369 701 396 711 388 715 l 7 410 b -15 364 -8 399 -15 383 z "},"̸":{"ha":0,"x_min":0,"x_max":0,"o":"m 576 1147 l 481 1147 b 440 1121 461 1147 449 1139 l -72 -119 b -53 -150 -82 -140 -75 -150 l 46 -150 b 85 -124 65 -150 78 -142 l 597 1117 b 576 1147 606 1138 600 1147 z "},"¨":{"ha":539,"x_min":0,"x_max":0,"o":"m 325 946 l 497 946 b 524 972 514 946 524 954 l 524 1135 b 497 1161 524 1151 515 1161 l 325 1161 b 299 1135 307 1161 299 1153 l 299 972 b 325 946 299 954 306 946 z m 44 946 l 214 946 b 240 972 232 946 240 954 l 240 1135 b 214 1161 240 1151 232 1161 l 44 1161 b 18 1135 26 1161 18 1153 l 18 972 b 44 946 18 954 25 946 z "},"˙":{"ha":256,"x_min":0,"x_max":0,"o":"m 215 1164 l 42 1164 b 15 1138 24 1164 15 1156 l 15 972 b 42 946 15 954 24 946 l 215 946 b 242 972 233 946 242 954 l 242 1138 b 215 1164 242 1156 235 1164 z "},"`":{"ha":372,"x_min":0,"x_max":0,"o":"m 350 969 l 244 1186 b 204 1213 236 1204 224 1213 l 38 1213 b 21 1183 14 1213 10 1203 l 157 964 b 200 940 168 947 181 940 l 332 940 b 350 969 354 940 361 950 z "},"´":{"ha":311,"x_min":0,"x_max":0,"o":"m 11 940 l 136 940 b 181 964 156 940 169 947 l 319 1185 b 304 1213 332 1203 326 1213 l 142 1213 b 101 1188 122 1213 110 1204 l -8 969 b 11 940 -18 950 -12 940 z "},"˝":{"ha":622,"x_min":0,"x_max":0,"o":"m 43 939 l 167 939 b 210 964 186 939 200 947 l 328 1182 b 310 1211 338 1201 333 1211 l 153 1211 b 114 1185 133 1211 121 1203 l 22 969 b 43 939 14 949 21 939 z m 293 939 l 424 939 b 467 963 443 939 457 946 l 600 1182 b 585 1211 613 1201 607 1211 l 421 1211 b 381 1185 401 1211 389 1203 l 275 968 b 293 939 265 949 271 939 z "},"ˆ":{"ha":581,"x_min":0,"x_max":0,"o":"m 181 1186 l 24 967 b 38 940 10 949 14 940 l 176 940 b 221 963 196 940 210 947 l 293 1058 l 363 963 b 407 940 374 947 388 940 l 543 940 b 558 967 567 940 571 949 l 408 1186 b 364 1210 397 1203 383 1210 l 225 1210 b 181 1186 206 1210 192 1203 z "},"ˇ":{"ha":581,"x_min":0,"x_max":0,"o":"m 24 1183 l 181 964 b 225 940 192 947 206 940 l 364 940 b 408 964 383 940 397 947 l 558 1183 b 543 1210 571 1201 567 1210 l 407 1210 b 363 1188 388 1210 374 1203 l 293 1092 l 221 1188 b 176 1210 210 1203 196 1210 l 38 1210 b 24 1183 14 1210 10 1201 z "},"˘":{"ha":501,"x_min":0,"x_max":0,"o":"m 253 918 b 485 1110 383 918 471 994 b 460 1138 486 1128 479 1138 l 319 1138 b 294 1110 301 1138 293 1129 b 253 1063 293 1079 278 1063 b 211 1110 228 1063 213 1079 b 185 1138 211 1128 204 1138 l 43 1138 b 18 1110 25 1138 17 1129 b 253 918 32 996 110 918 z "},"˚":{"ha":439,"x_min":0,"x_max":0,"o":"m 221 904 b 422 1090 338 904 422 983 b 221 1276 422 1197 338 1276 b 18 1090 103 1276 18 1197 b 221 904 18 983 103 904 z m 219 1028 b 161 1090 186 1028 161 1054 b 219 1153 161 1126 186 1153 b 279 1090 254 1153 281 1126 b 219 1028 281 1054 254 1028 z "},"˜":{"ha":507,"x_min":0,"x_max":0,"o":"m 375 919 b 472 956 415 919 447 932 b 490 1007 485 971 490 988 l 490 1111 b 467 1122 490 1133 483 1138 b 381 1094 439 1100 417 1094 b 272 1121 343 1094 310 1107 b 136 1153 233 1136 189 1153 b 38 1117 97 1153 64 1140 b 18 1067 24 1101 18 1086 l 18 961 b 43 949 18 938 26 935 b 131 976 74 971 96 976 b 240 950 169 976 201 964 b 375 919 279 935 324 919 z "},"¯":{"ha":450,"x_min":0,"x_max":0,"o":"m 463 1124 l 13 1124 b -14 1096 -4 1124 -14 1115 l -14 983 b 13 957 -14 967 -6 957 l 463 957 b 490 983 481 957 490 965 l 490 1096 b 463 1124 490 1114 482 1124 z "},"¸":{"ha":354,"x_min":0,"x_max":0,"o":"m 268 29 l 138 29 b 97 3 118 29 106 21 l -3 -212 b 17 -243 -12 -233 -7 -243 l 176 -243 b 214 -217 196 -243 208 -235 l 290 -3 b 268 29 299 19 292 29 z "},"˛":{"ha":268,"x_min":0,"x_max":0,"o":"m 178 -269 l 257 -269 b 282 -243 274 -269 283 -261 l 281 -139 b 254 -111 281 -121 272 -111 l 208 -111 b 174 -87 183 -111 174 -107 b 238 0 174 -61 190 -39 l 203 71 b -15 -126 90 26 -15 -11 b 178 -269 -15 -228 67 -269 z "},"⁄":{"ha":47,"x_min":0,"x_max":0,"o":"m 500 1050 l 350 1050 b 306 1028 331 1050 318 1044 l -456 26 b -443 0 -469 8 -465 0 l -293 0 b -249 22 -274 0 -260 7 l 514 1024 b 500 1050 526 1042 522 1050 z "}}}
